<?xml version="1.0" encoding="UTF-8"?>
<svg version="1.1" xmlns="http://www.w3.org/2000/svg" width="500" height="500">
<path d="M0 0 C165 0 330 0 500 0 C500 165 500 330 500 500 C335 500 170 500 0 500 C0 335 0 170 0 0 Z " fill="#FDFEFE" transform="translate(0,0)"/>
<path d="M0 0 C9.64391338 6.26207127 16.35393869 14.06181608 20 25 C21.51156397 37.01459607 18.77366206 46.03675351 12 56 C9.88296508 58.53312602 7.80233722 60.2806621 5 62 C4.32710938 62.45503906 3.65421875 62.91007812 2.9609375 63.37890625 C0.1389142 65.23383168 -2.54247804 66.81911923 -5.6875 68.0625 C-9.56415182 69.6341156 -12.20523847 71.24265877 -13.98046875 75.16796875 C-16.91318943 84.04874263 -17.21912913 92.48874642 -13 101 C-11.27996574 103.49229454 -9.46528504 105.8295008 -7.5234375 108.15234375 C-4.37395395 111.97210201 -4.66857878 115.43829318 -4.71875 120.2421875 C-5.34106293 126.34431147 -9.75198418 129.97556396 -14 134 C-14.66 134.66 -15.32 135.32 -16 136 C-21.31268125 137.74847737 -26.91613981 137.69462006 -32.1875 135.9375 C-37.39267747 132.35171108 -41.02912573 128.04823341 -43 122 C-43.62526541 117.00514725 -43.66681749 112.5154943 -41.625 107.875 C-38.44038049 104.38708339 -34.97222528 101.35889978 -31.33984375 98.34375 C-27.96203758 94.96030476 -26.22751534 91.83480114 -25.63671875 87.0703125 C-25.68900945 84.03745175 -25.79238532 81.02638328 -26 78 C-26.06960938 76.87464844 -26.06960938 76.87464844 -26.140625 75.7265625 C-27.12715923 69.15832142 -32.00287724 65.88573631 -37 62 C-37.94166016 61.33484375 -37.94166016 61.33484375 -38.90234375 60.65625 C-45.50982397 55.74184294 -49.65195334 47.23723875 -51.6796875 39.359375 C-53.02386077 29.45839137 -51.86900452 20.47080517 -45.8125 12.3125 C-34.45640897 -1.1624424 -17.06212227 -9.35771435 0 0 Z " fill="#01E44C" transform="translate(308,133)"/>
<path d="M0 0 C8.74069968 5.34233868 16.97938648 12.11844455 19.91577148 22.34643555 C22.07955062 32.33926647 21.39977924 43.06882677 16.20703125 51.90625 C12.7516602 56.6923065 8.73371681 60.47320673 4.22265625 64.24609375 C-1.06467401 68.68823739 -5.06399495 72.18884604 -6.00390625 79.27734375 C-6.33281859 87.45903829 -4.96880154 92.77171671 0.53515625 98.83203125 C3.28155742 101.61421615 6.08393884 104.32029565 9.0234375 106.8984375 C12.69065757 111.11839799 12.98350997 116.2333574 12.875 121.59375 C11.84094546 127.45339242 8.09388763 131.44636838 3.40625 134.89453125 C-2.55749357 138.27201771 -7.66020559 138.26817066 -14.25390625 136.44921875 C-19.65077311 133.25107543 -23.18090184 128.20594144 -25.62890625 122.44921875 C-26.68110866 115.94024569 -25.2063056 110.88411391 -21.62890625 105.44921875 C-20.02470068 103.38800113 -18.33353121 101.43026938 -16.62890625 99.44921875 C-16.13390625 97.96421875 -16.13390625 97.96421875 -15.62890625 96.44921875 C-14.96890625 96.44921875 -14.30890625 96.44921875 -13.62890625 96.44921875 C-13.88633898 93.92637802 -14.15941942 91.40683731 -14.44140625 88.88671875 C-14.51166016 88.18224609 -14.58191406 87.47777344 -14.65429688 86.75195312 C-15.33939757 80.80527913 -16.47924796 75.54385166 -20.91796875 71.21875 C-23.86271876 69.2966005 -26.85584922 67.70326969 -30.00390625 66.13671875 C-41.16865911 60.17043593 -46.60679772 52.51554434 -50.62890625 40.44921875 C-51.61702137 29.6549991 -50.74260316 21.75904498 -44.62890625 12.44921875 C-44.24605469 11.84722656 -43.86320313 11.24523437 -43.46875 10.625 C-33.85908642 -2.49787392 -14.5843019 -7.00931879 0 0 Z " fill="#01E44C" transform="translate(222.62890625,132.55078125)"/>
<path d="M0 0 C1.22396484 -0.03673828 1.22396484 -0.03673828 2.47265625 -0.07421875 C8.36668684 -0.10260092 11.62792786 1.05669129 16.5 4.375 C17.23347656 4.85582031 17.96695313 5.33664063 18.72265625 5.83203125 C25.96134414 11.16499239 32.30574535 17.38841775 34.5 26.375 C35.89960599 38.07943037 34.50032736 47.79460523 27.75 57.625 C21.14465801 65.79519857 12.54606686 70.58853696 2.0703125 71.7578125 C-7.00953952 72.05583828 -14.5938597 70.36134627 -22.375 65.625 C-28.18884413 63.29946235 -34.92859521 63.36519385 -40.9453125 65.06640625 C-46.45043196 67.56778182 -49.92185214 71.3017647 -52.6875 76.6875 C-53.52045332 79.24253579 -53.52045332 79.24253579 -53.84765625 81.40625 C-54.93863403 87.59198812 -57.17588716 91.7868192 -61.5 96.375 C-66.8838533 99.96423553 -73.17043466 100.0870761 -79.5 99.375 C-85.12887302 97.41342304 -88.59595554 93.57352073 -91.5859375 88.55078125 C-93.82114484 83.23022361 -92.92497048 76.99519995 -91.5 71.5625 C-88.64509097 67.01248873 -84.66180721 63.38460192 -79.45703125 61.72265625 C-75.33521685 60.99043772 -71.64392985 60.96826939 -67.6875 62.375 C-61.74956441 64.23788175 -55.89078045 64.35046838 -50.1875 61.6875 C-44.34850375 58.32743375 -40.08243809 53.63256183 -37.5 47.375 C-37.02329175 44.32650292 -37.04536394 41.33044009 -37.0625 38.25 C-36.74497765 26.86863654 -34.62814994 18.16887363 -26.5 9.75 C-18.49606484 2.22129849 -10.79252355 0.0170498 0 0 Z " fill="#01E44B" transform="translate(396.5,194.625)"/>
<path d="M0 0 C8.54711621 5.77476761 14.51326384 12.90820831 16.76953125 23.1328125 C17.14072968 26.23875855 17.21527972 29.27601854 17.23803711 32.40136719 C17.37226146 39.86123972 18.04188682 45.44082982 23.00390625 51.375 C29.04908256 56.89259729 34.99066425 58.94385469 43.12109375 58.609375 C45.21615812 58.43898384 45.21615812 58.43898384 47.15234375 57.3359375 C60.28199362 55.97472708 60.28199362 55.97472708 65.77734375 59.9609375 C67.59765625 61.64453125 67.59765625 61.64453125 69.15234375 63.3359375 C69.97734375 64.2228125 70.80234375 65.1096875 71.65234375 66.0234375 C74.26000612 71.78202523 73.54156744 77.44456154 72.71484375 83.5859375 C69.83169484 88.66027958 64.66657486 92.49786046 59.15234375 94.3359375 C53.82383928 94.97739905 48.49931451 95.55839368 43.625 93.01953125 C37.04976292 87.54628921 35.12327566 80.64973276 32.8984375 72.66796875 C31.39486921 67.96833383 29.9242199 65.83718516 25.71484375 63.1484375 C24.93238281 62.63925781 24.14992188 62.13007813 23.34375 61.60546875 C17.66409246 58.31511456 11.50749446 58.51509059 5.15234375 59.3359375 C2.21023395 60.31502739 -0.58905359 61.55353203 -3.41015625 62.8359375 C-10.45625869 66.0212157 -16.03006527 67.38986458 -23.84765625 66.3359375 C-25.04455078 66.20638672 -25.04455078 66.20638672 -26.265625 66.07421875 C-36.14848236 64.49228117 -42.89321808 57.95638428 -48.84765625 50.3359375 C-49.38261719 49.66304687 -49.91757813 48.99015625 -50.46875 48.296875 C-55.47864271 41.17232503 -54.50253482 30.64211888 -53.84765625 22.3359375 C-51.70748123 12.57058801 -44.86818312 4.99748588 -36.84765625 -0.6640625 C-25.44881472 -7.11424184 -11.21348817 -6.55273794 0 0 Z " fill="#01E44B" transform="translate(122.84765625,199.6640625)"/>
<path d="M0 0 C0.66046326 0.00376648 1.32092651 0.00753296 2.00140381 0.01141357 C20.3336444 0.13373552 36.05771977 2.32293377 53.4375 8.25 C54.39011719 8.56839844 55.34273437 8.88679688 56.32421875 9.21484375 C85.95430455 20.13119115 111.20974598 42.52559895 127.4375 69.25 C128.30568359 70.59964844 128.30568359 70.59964844 129.19140625 71.9765625 C133.17876654 78.27239454 137.4375 85.6278032 137.4375 93.25 C138.0975 93.25 138.7575 93.25 139.4375 93.25 C140.79264546 97.57683499 142.12035694 101.91145351 143.4375 106.25 C143.74558594 107.23871094 144.05367188 108.22742188 144.37109375 109.24609375 C146.11469579 115.12762217 146.73919452 120.11554468 146.4375 126.25 C142.8075 126.58 139.1775 126.91 135.4375 127.25 C135.18355469 125.97125 134.92960937 124.6925 134.66796875 123.375 C134.32065601 121.6665968 133.97298038 119.95826734 133.625 118.25 C133.45935547 117.41082031 133.29371094 116.57164062 133.12304688 115.70703125 C132.01194938 110.29829249 130.4725768 105.38193281 128.4375 100.25 C128.03136083 98.91976965 127.63452633 97.58663806 127.25 96.25 C121.07986965 77.67533677 109.18896208 62.85268274 95.4375 49.25 C94.67953125 48.49460938 93.9215625 47.73921875 93.140625 46.9609375 C81.86301186 36.22206384 68.79668455 28.19908186 54.4375 22.25 C53.63699219 21.88519531 52.83648437 21.52039063 52.01171875 21.14453125 C44.15701768 17.69902372 35.78772032 16.05202323 27.4375 14.25 C26.6947583 14.073479 25.9520166 13.89695801 25.18676758 13.71508789 C21.6564333 13.11786857 18.16456794 13.03013493 14.59375 12.9765625 C13.45718208 12.95777039 13.45718208 12.95777039 12.2976532 12.93859863 C-4.27147122 12.71778273 -19.71190105 12.83461842 -35.5625 18.25 C-36.27019531 18.47461914 -36.97789062 18.69923828 -37.70703125 18.93066406 C-72.75565808 30.09875619 -99.13247183 56.65240051 -115.8515625 88.72265625 C-118.67720471 94.66513281 -120.08207549 100.86416888 -121.5625 107.25 C-122.10277422 109.31286519 -122.64442038 111.3753716 -123.1875 113.4375 C-124.43207172 118.38320649 -125.13922715 123.17072579 -125.5625 128.25 C-129.5225 127.59 -133.4825 126.93 -137.5625 126.25 C-136.94873369 117.6572716 -134.77588133 109.5396601 -132.5625 101.25 C-132.33691406 100.36183594 -132.11132812 99.47367187 -131.87890625 98.55859375 C-126.31127319 78.1208848 -114.81203534 60.63420306 -100.5625 45.25 C-99.67820313 44.28320312 -98.79390625 43.31640625 -97.8828125 42.3203125 C-78.85355705 22.38759091 -52.30519736 8.30565564 -25.5625 2.25 C-24.76706787 2.06759766 -23.97163574 1.88519531 -23.15209961 1.69726562 C-15.42025447 0.09722992 -7.87680298 -0.0590435 0 0 Z " fill="#0E0D0E" transform="translate(245.5625,61.75)"/>
<path d="M0 0 C2 2 2 2 2 6 C2.66 6 3.32 6 4 6 C5.12109375 7.73046875 5.12109375 7.73046875 6.4375 10.1875 C13.91158132 23.03130964 25.26900612 34.87857344 36.9375 43.9375 C53.81047922 57.1470907 66.66755215 74.07560551 71.32421875 95.2734375 C71.92915979 98.00033199 71.92915979 98.00033199 73.01953125 100.4765625 C75.89687726 107.88200283 75 115.00554266 75 123 C102.39 123 129.78 123 158 123 C158 119.37 158 115.74 158 112 C158.4375 108.51953125 158.4375 108.51953125 159 105.8125 C159.185625 104.89082031 159.37125 103.96914063 159.5625 103.01953125 C159.706875 102.35308594 159.85125 101.68664062 160 101 C160.66 101 161.32 101 162 101 C162.12117187 100.45472656 162.24234375 99.90945313 162.3671875 99.34765625 C162.72215209 97.7503156 163.08191957 96.15403807 163.4453125 94.55859375 C163.78866125 92.97483718 164.10214299 91.38388219 164.3671875 89.78515625 C167.69922784 70.98292859 185.09032813 51.84987268 200 41 C200.99 40.67 201.98 40.34 203 40 C203 39.34 203 38.68 203 38 C204.3984375 36.66015625 204.3984375 36.66015625 206.375 35.0625 C216.40422105 26.4458453 223.26495022 16.89537338 229.97607422 5.65283203 C231.20195146 3.67400778 232.55135403 1.82128803 234 0 C238.21912747 0.4794463 240.79663178 1.16625119 244 4 C239.24412102 17.32157498 229.4755211 28.76204117 220 39 C218.93458984 40.15435547 218.93458984 40.15435547 217.84765625 41.33203125 C212.11997086 47.27055168 205.66183994 52.46540825 199.09375 57.4453125 C184.25686299 69.13286029 174.18764328 89.69278882 171 108 C170.86816669 110.04477537 170.77746572 112.09244562 170.71875 114.140625 C170.68136719 115.29304688 170.64398438 116.44546875 170.60546875 117.6328125 C170.53470105 120.0598826 170.46439436 122.48696619 170.39453125 124.9140625 C170.35714844 126.06132812 170.31976563 127.20859375 170.28125 128.390625 C170.25095703 129.44282227 170.22066406 130.49501953 170.18945312 131.57910156 C170 134 170 134 169 135 C167.63391674 135.09535213 166.26294545 135.1218867 164.89353943 135.12025452 C164.00867859 135.12162918 163.12381775 135.12300385 162.21214294 135.12442017 C161.23391068 135.12082489 160.25567841 135.11722961 159.24780273 135.11352539 C158.2235318 135.11367142 157.19926086 135.11381744 156.14395142 135.1139679 C152.74047771 135.11326828 149.33705796 135.10547363 145.93359375 135.09765625 C143.58089732 135.09579224 141.2282005 135.09436826 138.87550354 135.09336853 C132.66943295 135.08954199 126.4633856 135.07971055 120.25732422 135.06866455 C113.93001622 135.05845334 107.60270448 135.05387154 101.27539062 135.04882812 C88.85025018 135.0380884 76.42512702 135.02101036 64 135 C63.98214447 134.29897156 63.96428894 133.59794312 63.94589233 132.87567139 C63.85740153 129.64068186 63.75300429 126.40638326 63.6484375 123.171875 C63.62064209 122.06956543 63.59284668 120.96725586 63.56420898 119.83154297 C63.16569849 108.20189273 61.40377584 95.95405571 55 86 C54.07126404 84.08915244 53.1551345 82.17213955 52.25 80.25 C46.21631828 68.16788428 36.76817086 58.34533521 26.125 50.125 C11.23397497 38.49064922 -1.80439718 23.11846049 -10 6 C-10 5.01 -10 4.02 -10 3 C-6.67976423 0.43867527 -4.1855415 -0.56561372 0 0 Z " fill="#0F0F0F" transform="translate(133,266)"/>
<path d="M0 0 C5.23008671 4.75363988 7.98079736 9.47425528 8.5 16.5625 C8.33156592 23.19087653 5.79550228 28.63846731 2 34 C-4.47572358 39.80392232 -10.36443683 41.37671065 -18.92578125 41.2734375 C-25.1741162 40.71767708 -29.18596946 38.18340706 -33.3125 33.5625 C-38.72662801 26.67714155 -41.00064222 20.78824906 -40 12 C-38.07328439 5.3485359 -33.62114228 0.84324311 -28 -3 C-18.41016154 -7.16162801 -8.46673726 -5.91633654 0 0 Z " fill="#00E44B" transform="translate(343,207)"/>
<path d="M0 0 C5.56945739 4.57845074 9.46539622 8.65564087 10.37109375 16.015625 C10.54485143 24.47864635 9.36611043 30.22606606 3.578125 36.5546875 C-2.66935875 42.23116467 -8.78662308 43.63390466 -16.9921875 43.41796875 C-23.09942389 42.56930084 -27.37102611 39.70843603 -31.5625 35.3125 C-33 33 -33 33 -33 31 C-33.66 31 -34.32 31 -35 31 C-37.42897811 24.01668794 -38.57702574 16.76526945 -35.4375 9.8125 C-32.47048814 4.64381856 -28.58577117 0.3830869 -23.3125 -2.4375 C-15.5416897 -3.75707156 -6.91745167 -4.33417096 0 0 Z " fill="#00E44C" transform="translate(186,205)"/>
<path d="M0 0 C27.06 0 54.12 0 82 0 C79.64327127 9.42691493 72.755561 16.23123408 64.8046875 21.4375 C62.57708742 22.74146102 60.33353336 23.8978294 58 25 C57.33742188 25.32097656 56.67484375 25.64195312 55.9921875 25.97265625 C50.99608102 28.01479103 46.10084884 28.2755809 40.75 28.3125 C39.72120728 28.32083862 39.72120728 28.32083862 38.67163086 28.3293457 C34.65276022 28.27194027 31.64115468 27.65564699 28 26 C26.205625 25.690625 26.205625 25.690625 24.375 25.375 C14.71951254 22.98845499 7.99603709 15.41890128 2.4609375 7.61328125 C1 5 1 5 0 0 Z " fill="#070707" transform="translate(209,437)"/>
<path d="M0 0 C0.8145163 -0.00845947 1.62903259 -0.01691895 2.4682312 -0.02563477 C3.80315865 -0.01652573 3.80315865 -0.01652573 5.16505432 -0.00723267 C6.10516357 -0.01248962 7.04527283 -0.01774658 8.01387024 -0.02316284 C11.1276654 -0.03638786 14.24095104 -0.02761509 17.35475159 -0.01748657 C19.51564635 -0.01950675 21.67654044 -0.02241772 23.83743286 -0.02618408 C28.36939475 -0.03061097 32.90117941 -0.02416518 37.43312073 -0.01016235 C43.24518431 0.00691939 49.056832 -0.00290313 54.86888027 -0.02087975 C59.33238869 -0.03171637 63.79579839 -0.02827159 68.25930977 -0.02049637 C70.40234997 -0.0184935 72.5453991 -0.02095665 74.68842888 -0.02793503 C77.68348319 -0.03554623 80.67786281 -0.02394915 83.67286682 -0.00723267 C85.00475792 -0.01634171 85.00475792 -0.01634171 86.36355591 -0.02563477 C89.93375244 0.01131696 92.34028265 0.04428544 95.53823853 1.7177124 C96.98365784 3.38095093 96.98365784 3.38095093 97.42115784 6.38095093 C96.93602342 9.70758691 96.56487683 10.38305615 93.98365784 12.38095093 C92.09239197 12.75847435 92.09239197 12.75847435 89.92262268 12.76190186 C89.09824707 12.77036133 88.27387146 12.7788208 87.42451477 12.78753662 C86.52364136 12.78146393 85.62276794 12.77539124 84.69459534 12.76913452 C83.74312622 12.77439148 82.7916571 12.77964844 81.81135559 12.7850647 C78.66029028 12.79828901 75.50972846 12.78951788 72.35865784 12.77938843 C70.17294721 12.78140846 67.98723724 12.7843193 65.80152893 12.78808594 C61.21829315 12.79251259 56.63523264 12.78606715 52.05201721 12.77206421 C46.17035471 12.75497227 40.28910287 12.76481161 34.40745544 12.7827816 C29.89337558 12.79361014 25.37939344 12.79017735 20.86531067 12.78239822 C18.69632418 12.78039365 16.52732887 12.78286448 14.35835266 12.78983688 C11.32956865 12.79743596 8.30145433 12.78586857 5.27272034 12.76913452 C4.37184692 12.77520721 3.47097351 12.78127991 2.5428009 12.78753662 C1.71842529 12.77907715 0.89404968 12.77061768 0.04469299 12.76190186 C-1.0293428 12.76020524 -1.0293428 12.76020524 -2.12507629 12.75847435 C-4.6058194 12.26328293 -5.49619966 11.37291794 -7.01634216 9.38095093 C-7.66098323 4.22382241 -7.66098323 4.22382241 -5.74392605 1.71726036 C-3.64607783 0.09454648 -2.6277508 0.00420186 0 0 Z " fill="#111111" transform="translate(205.01634216308594,404.6190490722656)"/>
<path d="M0 0 C0.8246727 -0.00365067 1.6493454 -0.00730133 2.49900818 -0.01106262 C5.22806316 -0.01917608 7.95652586 -0.00555154 10.68554688 0.0090332 C12.57979329 0.00955172 14.47404025 0.00903436 16.36828613 0.00752258 C20.33951849 0.00761234 24.310548 0.01804929 28.28173828 0.03613281 C33.37640143 0.05882007 38.47076807 0.05936447 43.56546783 0.05261517 C47.47734215 0.04927633 51.38914867 0.05590366 55.30101013 0.0657444 C57.1797195 0.06959817 59.0584364 0.07074389 60.93714905 0.06915855 C63.56111057 0.06878838 66.18468959 0.08139453 68.80859375 0.09765625 C69.97756447 0.09394012 69.97756447 0.09394012 71.17015076 0.09014893 C74.95218247 0.12762485 76.6784347 0.22173967 79.90429688 2.37231445 C80.34179688 5.80981445 80.34179688 5.80981445 79.90429688 9.37231445 C77.47210178 12.0795584 75.94695366 12.36788653 72.29919434 12.74653625 C70.83104728 12.76128794 69.36267727 12.75948387 67.89453125 12.74462891 C67.09082596 12.74827957 66.28712067 12.75193024 65.45906067 12.75569153 C62.80517375 12.76379051 60.15189867 12.7501925 57.49804688 12.7355957 C55.65246582 12.73507702 53.80688422 12.73559505 51.96130371 12.73710632 C48.09439846 12.73701663 44.22770182 12.7265929 40.36083984 12.70849609 C35.40418493 12.68580908 30.44783482 12.68526515 25.49114227 12.69201374 C21.6804534 12.69535523 17.86983402 12.68872021 14.05915833 12.67888451 C12.23151513 12.67503534 10.40386421 12.67388312 8.57621765 12.67547035 C6.02201613 12.67584121 3.46820533 12.66321499 0.9140625 12.64697266 C-0.21910652 12.65068878 -0.21910652 12.65068878 -1.37516785 12.65447998 C-5.1014153 12.61666302 -7.93155791 12.44637777 -11.09570312 10.37231445 C-11.45719631 3.98593477 -11.45719631 3.98593477 -10.08996582 1.66511536 C-6.94115433 -0.37613345 -3.63185201 -0.03562227 0 0 Z " fill="#0B0B0C" transform="translate(215.095703125,420.627685546875)"/>
<path d="M0 0 C3.31609475 2.10019334 6.2282057 4.4564114 8 8 C8.61547295 12.26156584 8.94993604 16.30125444 6.80078125 20.14453125 C4.19654462 23.2604315 1.79510441 25.45142291 -2 27 C-7.55187433 27.4477318 -11.28358505 27.29052206 -16 24 C-19.06609639 19.80966827 -19.68937817 15.62817458 -19.55859375 10.54296875 C-18.55579892 5.97779789 -15.54459834 2.90702605 -12 0 C-7.78922844 -1.40359052 -4.27195544 -1.17408047 0 0 Z " fill="#00E447" transform="translate(146,160)"/>
<path d="M0 0 C4.70180397 1.84713727 8.56179587 4.51370439 11 9 C11.44776348 13.04906123 11.85478593 17.29042814 10 21 C9.34 21 8.68 21 8 21 C7.7525 21.598125 7.505 22.19625 7.25 22.8125 C5.70462524 25.51690582 4.79352635 26.56742238 2 28 C-2.26016315 28.92429575 -5.57863049 28.89431806 -9.328125 26.53515625 C-13.10359043 23.32329448 -15.70001401 21.08062531 -16.203125 15.9140625 C-16.3015253 11.10884778 -16.26256844 7.80632984 -13 4 C-8.6380955 0.33203485 -5.67520007 -0.79651931 0 0 Z " fill="#00E443" transform="translate(362,159)"/>
<path d="M0 0 C5.28 0.66 10.56 1.32 16 2 C16 2.99 16 3.98 16 5 C19.96 5.33 23.92 5.66 28 6 C28.33 5.34 28.66 4.68 29 4 C29.928125 4.495 29.928125 4.495 30.875 5 C35.47748787 6.47279612 41.54916655 7.22541672 46 5 C59.39716007 3.95227338 59.39716007 3.95227338 63.875 6.9375 C64.57625 7.618125 65.2775 8.29875 66 9 C66 9.33 66 9.66 66 10 C62.37 10 58.74 10 55 10 C55.99 8.68 56.98 7.36 58 6 C57.44570312 6.15597656 56.89140625 6.31195313 56.3203125 6.47265625 C55.59585938 6.66730469 54.87140625 6.86195313 54.125 7.0625 C53.40570313 7.25972656 52.68640625 7.45695312 51.9453125 7.66015625 C50 8 50 8 48 7 C48 7.66 48 8.32 48 9 C48.66 9 49.32 9 50 9 C50 9.99 50 10.98 50 12 C46.66666667 11.33333333 43.33333333 10.66666667 40 10 C40.37904208 13.29075996 40.37904208 13.29075996 42 16 C42.04063832 17.66617115 42.042721 19.33388095 42 21 C41.34 20.67 40.68 20.34 40 20 C40 19.01 40 18.02 40 17 C39.34 17 38.68 17 38 17 C38.495 20.465 38.495 20.465 39 24 C39.66 24 40.32 24 41 24 C41.495 25.98 41.495 25.98 42 28 C41.34 28 40.68 28 40 28 C39.74969023 30.41619823 39.74969023 30.41619823 40 33 C40.99 33.66 41.98 34.32 43 35 C42.67 35.99 42.34 36.98 42 38 C42.66 38 43.32 38 44 38 C44 37.01 44 36.02 44 35 C44.9590625 34.8453125 44.9590625 34.8453125 45.9375 34.6875 C46.618125 34.460625 47.29875 34.23375 48 34 C48.33 33.01 48.66 32.02 49 31 C50.65 31 52.3 31 54 31 C54 31.66 54 32.32 54 33 C52.68 33 51.36 33 50 33 C49.690625 33.78375 49.38125 34.5675 49.0625 35.375 C48 38 48 38 47 40 C47.99 40 48.98 40 50 40 C50 39.01 50 38.02 50 37 C50.99 37 51.98 37 53 37 C52.67 38.32 52.34 39.64 52 41 C53.98 41 55.96 41 58 41 C58 41.33 58 41.66 58 42 C47.03679897 43.05286839 47.03679897 43.05286839 42.4609375 40.6875 C35.90772454 35.18967339 33.9722299 28.31845189 31.74609375 20.33203125 C30.24252546 15.63239633 28.77187615 13.50124766 24.5625 10.8125 C23.78003906 10.30332031 22.99757812 9.79414063 22.19140625 9.26953125 C18.28894474 7.00874695 15.12371514 6.83808371 10.6875 6.8125 C9.02267578 6.79123047 9.02267578 6.79123047 7.32421875 6.76953125 C3.9038164 7.00666843 1.19026557 7.77891499 -2 9 C-2 8.01 -2 7.02 -2 6 C-0.35 5.34 1.3 4.68 3 4 C3 3.34 3 2.68 3 2 C2.01 2 1.02 2 0 2 C0 1.34 0 0.68 0 0 Z " fill="#00E451" transform="translate(124,252)"/>
<path d="M0 0 C-1.72569639 1.13031603 -3.45571739 2.25403107 -5.1875 3.375 C-6.15042969 4.00148437 -7.11335938 4.62796875 -8.10546875 5.2734375 C-10.70568916 6.82444616 -13.17689637 7.93594396 -16 9 C-19.97019968 11.26868553 -21.41524317 13.45637017 -22.8125 17.6875 C-24.90997889 25.86167487 -24.79840173 33.33748025 -21 41 C-19.27996574 43.49229454 -17.46528504 45.8295008 -15.5234375 48.15234375 C-12.37395395 51.97210201 -12.66857878 55.43829318 -12.71875 60.2421875 C-13.34106293 66.34431147 -17.75198418 69.97556396 -22 74 C-22.99 74.99 -22.99 74.99 -24 76 C-29.42420576 77.78518164 -35.05625583 77.71990525 -40.375 75.75 C-42.9356936 74.04287094 -44.38791736 72.59724425 -46 70 C-44.02 70.66 -42.04 71.32 -40 72 C-40 72.66 -40 73.32 -40 74 C-37.69 74 -35.38 74 -33 74 C-33 74.66 -33 75.32 -33 76 C-31.68 76 -30.36 76 -29 76 C-29 74.68 -29 73.36 -29 72 C-28.01 72 -27.02 72 -26 72 C-26 71.01 -26 70.02 -26 69 C-24.68 69 -23.36 69 -22 69 C-22 69.66 -22 70.32 -22 71 C-21.34 71 -20.68 71 -20 71 C-20.33 69.02 -20.66 67.04 -21 65 C-20.01 65 -19.02 65 -18 65 C-18 63.68 -18 62.36 -18 61 C-17.01 61 -16.02 61 -15 61 C-15.33 60.34 -15.66 59.68 -16 59 C-16.22622081 57.29636178 -16.40888473 55.58671299 -16.5625 53.875 C-16.64628906 52.96492188 -16.73007812 52.05484375 -16.81640625 51.1171875 C-16.90728516 50.06917969 -16.90728516 50.06917969 -17 49 C-18.65 48.34 -20.3 47.68 -22 47 C-22 45.35 -22 43.7 -22 42 C-23.485 41.505 -23.485 41.505 -25 41 C-25.33 39.02 -25.66 37.04 -26 35 C-26.66 35 -27.32 35 -28 35 C-28.103125 35.78375 -28.20625 36.5675 -28.3125 37.375 C-29 40 -29 40 -32 42 C-32.33 40.68 -32.66 39.36 -33 38 C-33.33 38.66 -33.66 39.32 -34 40 C-34.99 40 -35.98 40 -37 40 C-37.33 40.99 -37.66 41.98 -38 43 C-39.32 43 -40.64 43 -42 43 C-42.28875 43.61875 -42.5775 44.2375 -42.875 44.875 C-44 47 -44 47 -46 49 C-46.99 49 -47.98 49 -49 49 C-47.07674691 44.19730018 -43.29132644 41.64932366 -39.41015625 38.4140625 C-35.99669091 34.99506481 -34.21281473 31.90013148 -33.671875 27.0703125 C-33.69765625 26.09835938 -33.7234375 25.12640625 -33.75 24.125 C-33.78867187 22.57425781 -33.78867187 22.57425781 -33.828125 20.9921875 C-34.04115428 17.28354143 -34.43521593 13.67109649 -35 10 C-34.34 10 -33.68 10 -33 10 C-30.98487773 14.21865028 -30.58645932 18.20885432 -30.375 22.8125 C-30.33632813 23.50537109 -30.29765625 24.19824219 -30.2578125 24.91210938 C-30.16426432 26.60767015 -30.08107636 28.30379712 -30 30 C-30.66 30 -31.32 30 -32 30 C-31.67 31.32 -31.34 32.64 -31 34 C-29.515 33.505 -29.515 33.505 -28 33 C-27.95101563 32.20335937 -27.90203125 31.40671875 -27.8515625 30.5859375 C-27.10896309 20.06151142 -27.10896309 20.06151142 -25 15 C-24.34 15 -23.68 15 -23 15 C-23.66 14.01 -24.32 13.02 -25 12 C-25 11.01 -25 10.02 -25 9 C-23.02 9 -21.04 9 -19 9 C-18.87625 8.195625 -18.7525 7.39125 -18.625 6.5625 C-18.315625 5.2940625 -18.315625 5.2940625 -18 4 C-14.78548731 2.39274365 -11.56387464 2.94251815 -8 3 C-8 2.01 -8 1.02 -8 0 C-4.90645403 -0.99435406 -3.09720845 -0.87840996 0 0 Z " fill="#07E164" transform="translate(316,193)"/>
<path d="M0 0 C0.33 0 0.66 0 1 0 C1.05834353 3.22909006 1.09371115 6.45804338 1.125 9.6875 C1.14175781 10.59951172 1.15851563 11.51152344 1.17578125 12.45117188 C1.20944156 17.07946415 1.22432921 20.81302737 -1 25 C-1.37125 25.763125 -1.7425 26.52625 -2.125 27.3125 C-2.41375 27.869375 -2.7025 28.42625 -3 29 C-1.35 29 0.3 29 2 29 C1 31 1 31 -3 33 C2.94 32.67 8.88 32.34 15 32 C14.01 32.495 14.01 32.495 13 33 C13 33.66 13 34.32 13 35 C13.99 35.33 14.98 35.66 16 36 C15.01 36.495 15.01 36.495 14 37 C13.01 36.67 12.02 36.34 11 36 C3.31907314 35.35904714 -3.68380918 35.13563503 -10 40 C-15.50434619 45.15150349 -17.08930289 50.84942158 -18.4375 58.01171875 C-19 60 -19 60 -21 62 C-21.04254356 60.00045254 -21.04080783 57.99958364 -21 56 C-20.67 55.67 -20.34 55.34 -20 55 C-19.76807135 53.48530552 -19.58784762 51.96245438 -19.4375 50.4375 C-19.35371094 49.61121094 -19.26992188 48.78492188 -19.18359375 47.93359375 C-19.09271484 46.97646484 -19.09271484 46.97646484 -19 46 C-18.34 46 -17.68 46 -17 46 C-17.04125 45.21625 -17.0825 44.4325 -17.125 43.625 C-17 41 -17 41 -15 39 C-14.505 38.01 -14.505 38.01 -14 37 C-15.98 37 -17.96 37 -20 37 C-19.67 38.32 -19.34 39.64 -19 41 C-20.98 41 -22.96 41 -25 41 C-25 40.34 -25 39.68 -25 39 C-31.74721176 38.4492072 -35.32014547 39.3648931 -41 43 C-41.99 43 -42.98 43 -44 43 C-44.33 43.66 -44.66 44.32 -45 45 C-45 43.68 -45 42.36 -45 41 C-44.34 41 -43.68 41 -43 41 C-43 40.34 -43 39.68 -43 39 C-44.98 38.67 -46.96 38.34 -49 38 C-45.20349392 33.79672542 -43.17895225 33.1210529 -37.625 32.8125 C-34 33 -34 33 -31.1875 34 C-25.24956441 35.86288175 -19.39078045 35.97546838 -13.6875 33.3125 C-7.84747701 29.95184291 -3.57812146 25.25874832 -1 19 C-0.4143438 15.6862194 -0.30621407 12.42256801 -0.25 9.0625 C-0.22035156 8.18787109 -0.19070313 7.31324219 -0.16015625 6.41210938 C-0.09009434 4.27522123 -0.04270949 2.13760977 0 0 Z " fill="#0AE06B" transform="translate(360,223)"/>
<path d="M0 0 C9.05497112 5.06013092 13.17473998 10.31847871 17 20 C18.11689194 24.80263533 18.1200896 29.47545399 18.0625 34.375 C18.05798828 35.11105469 18.05347656 35.84710938 18.04882812 36.60546875 C18.03715142 38.40368158 18.01922011 40.20185197 18 42 C17.67 42 17.34 42 17 42 C17 40.02 17 38.04 17 36 C16.34 36 15.68 36 15 36 C14.67 37.32 14.34 38.64 14 40 C13.01 39.67 12.02 39.34 11 39 C10.67 38.34 10.34 37.68 10 37 C9.505 39.475 9.505 39.475 9 42 C6 41 6 41 4.75 38.6875 C3.9724474 35.90126985 4.01273473 34.66561622 5 32 C5.33 32.66 5.66 33.32 6 34 C6.66 34 7.32 34 8 34 C8.10815225 32.23050905 8.18566083 30.45912513 8.25 28.6875 C8.31960937 27.20830078 8.31960937 27.20830078 8.390625 25.69921875 C8.28147438 22.85790264 8.28147438 22.85790264 5.984375 21.26953125 C5.32953125 20.85058594 4.6746875 20.43164062 4 20 C4 19.34 4 18.68 4 18 C4.66 17.67 5.32 17.34 6 17 C6.65555119 14.47266765 6.65555119 14.47266765 7 12 C6.34 12 5.68 12 5 12 C4.67 9.36 4.34 6.72 4 4 C2.68 3.67 1.36 3.34 0 3 C0 2.01 0 1.02 0 0 Z " fill="#02E451" transform="translate(122,200)"/>
<path d="M0 0 C3.31609475 2.10019334 6.2282057 4.4564114 8 8 C8.61547295 12.26156584 8.94993604 16.30125444 6.80078125 20.14453125 C4.19654462 23.2604315 1.79510441 25.45142291 -2 27 C-7.55187433 27.4477318 -11.28358505 27.29052206 -16 24 C-19.06609639 19.80966827 -19.68937817 15.62817458 -19.55859375 10.54296875 C-18.55579892 5.97779789 -15.54459834 2.90702605 -12 0 C-7.78922844 -1.40359052 -4.27195544 -1.17408047 0 0 Z M-11.4375 3 C-11.953125 3.66 -12.46875 4.32 -13 5 C-11.68 5 -10.36 5 -9 5 C-9 5.99 -9 6.98 -9 8 C-9.928125 7.773125 -10.85625 7.54625 -11.8125 7.3125 C-14.87027599 6.72718867 -14.87027599 6.72718867 -16.875 7.9375 C-18.65989579 11.20980894 -18.91994843 14.44238693 -18 18 C-15.16931218 20.44319227 -15.16931218 20.44319227 -12 22 C-11.67 22.66 -11.34 23.32 -11 24 C-9.68 24 -8.36 24 -7 24 C-7 23.34 -7 22.68 -7 22 C-6.4225 22.33 -5.845 22.66 -5.25 23 C-2.80116138 24.27075898 -2.80116138 24.27075898 1 24 C1 23.34 1 22.68 1 22 C0.01 22 -0.98 22 -2 22 C-1.40975852 20.34912153 -0.80233994 18.70437593 -0.1875 17.0625 C0.14894531 16.14597656 0.48539063 15.22945312 0.83203125 14.28515625 C2 12 2 12 5 11 C4.34 9.35 3.68 7.7 3 6 C2.67 6.99 2.34 7.98 2 9 C1.34 9 0.68 9 0 9 C0 9.66 0 10.32 0 11 C-1.32 11 -2.64 11 -4 11 C-4.66 9.68 -5.32 8.36 -6 7 C-5.34 7 -4.68 7 -4 7 C-4 7.66 -4 8.32 -4 9 C-3.01 8.67 -2.02 8.34 -1 8 C-0.95745644 6.00045254 -0.95919217 3.99958364 -1 2 C-2.15745487 0.63002255 -2.15745487 0.63002255 -5.3125 0.6875 C-9.04680193 0.65313703 -9.04680193 0.65313703 -11.4375 3 Z " fill="#05E25F" transform="translate(146,160)"/>
<path d="M0 0 C0.33 0.66 0.66 1.32 1 2 C0.67 2.66 0.34 3.32 0 4 C-0.22858114 6.0374763 -0.41024278 8.08040303 -0.5625 10.125 C-0.64628906 11.22070312 -0.73007812 12.31640625 -0.81640625 13.4453125 C-0.87699219 14.28835937 -0.93757813 15.13140625 -1 16 C0.32 16.33 1.64 16.66 3 17 C3 15.02 3 13.04 3 11 C3.66 11 4.32 11 5 11 C5.06058594 12.14339844 5.12117188 13.28679687 5.18359375 14.46484375 C5.26798428 15.95574305 5.35263302 17.44662775 5.4375 18.9375 C5.47681641 19.69224609 5.51613281 20.44699219 5.55664062 21.22460938 C5.44038024 24.91944187 5.44038024 24.91944187 7 28 C6.71269945 30.33944736 6.38063221 32.6739143 6 35 C7.98 35 9.96 35 12 35 C12.33 35.99 12.66 36.98 13 38 C15.97 38 18.94 38 22 38 C22 37.34 22 36.68 22 36 C24.64 35.67 27.28 35.34 30 35 C30 34.01 30 33.02 30 32 C31.32 32 32.64 32 34 32 C34 31.01 34 30.02 34 29 C34.99 29.33 35.98 29.66 37 30 C32.4908017 35.07284809 27.97572977 38.47025942 21.09765625 39.38671875 C14.57886726 39.62511078 9.2680027 39.0305524 4 35 C-1.93290757 29.29684056 -6.02667617 23.11410793 -6.3125 14.75 C-6.26437882 8.92733664 -4.10771441 4.10771441 0 0 Z " fill="#02E356" transform="translate(309,209)"/>
<path d="M0 0 C1.22396484 -0.03673828 1.22396484 -0.03673828 2.47265625 -0.07421875 C8.36668684 -0.10260092 11.62792786 1.05669129 16.5 4.375 C17.23347656 4.85582031 17.96695313 5.33664063 18.72265625 5.83203125 C23.2321933 9.15434411 27.32596487 12.71013019 30.5 17.375 C30.5 18.035 30.5 18.695 30.5 19.375 C29.51 19.375 28.52 19.375 27.5 19.375 C27.5 20.365 27.5 21.355 27.5 22.375 C26.51 22.375 25.52 22.375 24.5 22.375 C24.5 20.065 24.5 17.755 24.5 15.375 C22.16475218 17.63240623 20.31294927 19.6555761 18.5 22.375 C17.84 22.375 17.18 22.375 16.5 22.375 C16.83 19.405 17.16 16.435 17.5 13.375 C16.18 13.705 14.86 14.035 13.5 14.375 C13.5 13.055 13.5 11.735 13.5 10.375 C12.84 10.045 12.18 9.715 11.5 9.375 C12.49 9.045 13.48 8.715 14.5 8.375 C14.5 7.385 14.5 6.395 14.5 5.375 C13.736875 5.25125 12.97375 5.1275 12.1875 5 C9.5 4.375 9.5 4.375 6.5 2.375 C3.62825505 2.09480021 3.62825505 2.09480021 0.5 2.1875 C-0.551875 2.19394531 -1.60375 2.20039063 -2.6875 2.20703125 C-5.58062122 2.25792451 -5.58062122 2.25792451 -8.5 3.375 C-8.83 4.035 -9.16 4.695 -9.5 5.375 C-12.26432384 5.98279107 -15.03200962 6.33383508 -17.8359375 6.71484375 C-20.72478885 7.43070281 -21.74114656 8.02040588 -23.5 10.375 C-23.83 11.365 -24.16 12.355 -24.5 13.375 C-23.84 13.705 -23.18 14.035 -22.5 14.375 C-23.16 14.375 -23.82 14.375 -24.5 14.375 C-24.83 15.035 -25.16 15.695 -25.5 16.375 C-28.5625 17 -28.5625 17 -31.5 17.375 C-28.741498 11.05166464 -22.74532418 5.25745732 -16.5 2.375 C-10.91285821 0.4626705 -5.88663714 0.00929958 0 0 Z " fill="#00E455" transform="translate(396.5,194.625)"/>
<path d="M0 0 C1.32 0.33 2.64 0.66 4 1 C-2.32602416 10.44111182 -9.74322749 16.43771674 -21 19 C-29.85739103 19.98863818 -38.03828152 19.23594342 -46 15 C-46.33 14.34 -46.66 13.68 -47 13 C-44.36 13 -41.72 13 -39 13 C-39 13.66 -39 14.32 -39 15 C-36.36 15 -33.72 15 -31 15 C-31 14.34 -31 13.68 -31 13 C-28.03 13 -25.06 13 -22 13 C-22 12.34 -22 11.68 -22 11 C-18.535 10.505 -18.535 10.505 -15 10 C-14.67 9.01 -14.34 8.02 -14 7 C-13.34 7 -12.68 7 -12 7 C-12 6.34 -12 5.68 -12 5 C-11.01 5 -10.02 5 -9 5 C-9 5.66 -9 6.32 -9 7 C-9.66 7.33 -10.32 7.66 -11 8 C-10.505 9.485 -10.505 9.485 -10 11 C-9.34 11.33 -8.68 11.66 -8 12 C-8 11.34 -8 10.68 -8 10 C-7.01 10 -6.02 10 -5 10 C-5 9.34 -5 8.68 -5 8 C-4.34 8 -3.68 8 -3 8 C-2.690625 7.05125 -2.38125 6.1025 -2.0625 5.125 C-1 2 -1 2 0 0 Z " fill="#03E356" transform="translate(423,247)"/>
<path d="M0 0 C4.70180397 1.84713727 8.56179587 4.51370439 11 9 C11.44776348 13.04906123 11.85478593 17.29042814 10 21 C9.34 21 8.68 21 8 21 C7.67 21.66 7.34 22.32 7 23 C6.67 21.68 6.34 20.36 6 19 C5.46375 19.37125 4.9275 19.7425 4.375 20.125 C1.05387103 21.34857383 -0.81090417 20.30463011 -4 19 C-3.34 18.67 -2.68 18.34 -2 18 C-2 17.34 -2 16.68 -2 16 C-1.05125 15.7525 -0.1025 15.505 0.875 15.25 C4.02807731 14.30843444 4.02807731 14.30843444 5.375 12.125 C6.18811088 9.72959061 6.18811088 9.72959061 6 6 C4.7625 5.855625 3.525 5.71125 2.25 5.5625 C-0.56504499 5.21311498 -3.2701497 4.79620634 -6 4 C-6.33 4.99 -6.66 5.98 -7 7 C-8.65 7.33 -10.3 7.66 -12 8 C-12 8.66 -12 9.32 -12 10 C-10.35 10 -8.7 10 -7 10 C-7 10.66 -7 11.32 -7 12 C-9.64 12 -12.28 12 -15 12 C-14.67 14.97 -14.34 17.94 -14 21 C-16.7020964 16.94685541 -16.52827017 13.7544315 -16 9 C-13.19020779 1.97551947 -7.35767996 -1.03265684 0 0 Z " fill="#0DE16D" transform="translate(362,159)"/>
<path d="M0 0 C7.82221802 3.79259055 12.76637688 11.15933318 16 19 C18.61307399 26.83922196 17.91978354 36.00864818 14.5 43.4375 C13.69507796 44.97355956 12.8724463 46.50126189 12 48 C10.92957465 44.78872395 11.26847341 42.92879581 11.73828125 39.65234375 C12.07843439 36.20512013 12.11869754 32.7729694 12.125 29.3125 C12.12757813 28.05050781 12.13015625 26.78851563 12.1328125 25.48828125 C12.0994144 22.09891239 12.0994144 22.09891239 11.4296875 19.23046875 C11 17 11 17 12 14 C10.68 14.33 9.36 14.66 8 15 C8 14.01 8 13.02 8 12 C7.34 12 6.68 12 6 12 C4.23537317 8.91190305 4 7.76687864 4 4 C2.68 3.67 1.36 3.34 0 3 C0 2.01 0 1.02 0 0 Z M8 10 C8.33 10.99 8.66 11.98 9 13 C9.33 12.01 9.66 11.02 10 10 C9.34 10 8.68 10 8 10 Z " fill="#06E262" transform="translate(311,136)"/>
<path d="M0 0 C2.31 0.33 4.62 0.66 7 1 C7 1.66 7 2.32 7 3 C8.98 2.34 10.96 1.68 13 1 C13 1.99 13 2.98 13 4 C16.62885324 4.15149298 16.62885324 4.15149298 20 3 C20 4.98 20 6.96 20 9 C20.99 9.33 21.98 9.66 23 10 C22.01 10 21.02 10 20 10 C20.66 11.65 21.32 13.3 22 15 C22.66 15 23.32 15 24 15 C24.13530844 18.06398451 24.2342407 21.12197126 24.3125 24.1875 C24.35439453 25.05181641 24.39628906 25.91613281 24.43945312 26.80664062 C24.52726393 31.39036459 24.52442341 33.33185206 21.60546875 37.05078125 C19 39 19 39 17 40 C17.66 38.02 18.32 36.04 19 34 C19.66 34 20.32 34 21 34 C20.74256727 31.47715927 20.46948683 28.95761856 20.1875 26.4375 C20.11724609 25.73302734 20.04699219 25.02855469 19.97460938 24.30273438 C19.31186711 18.55013147 18.15773573 13.22516497 14 8.9375 C9.48111494 6.0190534 4.76003004 3.50089144 0 1 C0 0.67 0 0.34 0 0 Z M23 5 C24 9 24 9 24 9 Z " fill="#05E455" transform="translate(188,195)"/>
<path d="M0 0 C0.33 0.99 0.66 1.98 1 3 C1.99 3.33 2.98 3.66 4 4 C1.4091685 7.6114621 -0.06960294 9.59865225 -4.1875 11.375 C-12.41768225 12.7242102 -18.01941884 12.85605646 -25 8 C-23.68 7.67 -22.36 7.34 -21 7 C-20.67 5.02 -20.34 3.04 -20 1 C-18.68 1 -17.36 1 -16 1 C-16 1.66 -16 2.32 -16 3 C-16.66 3 -17.32 3 -18 3 C-18 3.99 -18 4.98 -18 6 C-17.2575 5.484375 -16.515 4.96875 -15.75 4.4375 C-13 3 -13 3 -10.75 3.125 C-10.1725 3.41375 -9.595 3.7025 -9 4 C-8.67 4.99 -8.34 5.98 -8 7 C-4.535 6.505 -4.535 6.505 -1 6 C-1.020625 5.195625 -1.04125 4.39125 -1.0625 3.5625 C-1 1 -1 1 0 0 Z " fill="#00E451" transform="translate(335,282)"/>
<path d="M0 0 C0.66 0.33 1.32 0.66 2 1 C1.67 1.33 1.34 1.66 1 2 C0.6775729 3.55644353 0.39200582 5.12059745 0.125 6.6875 C-1.44298209 14.56125177 -1.44298209 14.56125177 -4 18 C-7.6875 18.875 -7.6875 18.875 -11 19 C-13.42811925 24.82748619 -13.61727907 30.7757491 -14 37 C-14.33 37 -14.66 37 -15 37 C-15.85779467 24.48255179 -14.38670459 15.64555974 -6.375 5.4375 C-4.34867362 3.35784924 -2.41152086 1.60768057 0 0 Z " fill="#00E449" transform="translate(187,136)"/>
<path d="M0 0 C6.83987225 4.211744 13.65625577 9.19681187 17.37890625 16.46484375 C17.37890625 17.12484375 17.37890625 17.78484375 17.37890625 18.46484375 C14.45011254 17.8372451 12.01794996 16.87861716 9.37890625 15.46484375 C9.37890625 14.47484375 9.37890625 13.48484375 9.37890625 12.46484375 C8.71890625 12.46484375 8.05890625 12.46484375 7.37890625 12.46484375 C6.71890625 11.47484375 6.05890625 10.48484375 5.37890625 9.46484375 C4.38890625 9.46484375 3.39890625 9.46484375 2.37890625 9.46484375 C2.37890625 8.47484375 2.37890625 7.48484375 2.37890625 6.46484375 C1.71890625 6.13484375 1.05890625 5.80484375 0.37890625 5.46484375 C0.70890625 4.47484375 1.03890625 3.48484375 1.37890625 2.46484375 C-0.27109375 2.79484375 -1.92109375 3.12484375 -3.62109375 3.46484375 C-3.62109375 2.47484375 -3.62109375 1.48484375 -3.62109375 0.46484375 C-13.77553602 -1.35360022 -13.77553602 -1.35360022 -23.55859375 0.83984375 C-24.23921875 1.37609375 -24.91984375 1.91234375 -25.62109375 2.46484375 C-28.62109375 4.46484375 -28.62109375 4.46484375 -31.30859375 4.08984375 C-32.07171875 3.88359375 -32.83484375 3.67734375 -33.62109375 3.46484375 C-26.07893445 -5.23764775 -9.82233578 -4.67017996 0 0 Z " fill="#16E274" transform="translate(222.62109375,132.53515625)"/>
<path d="M0 0 C1.98 0.66 3.96 1.32 6 2 C6.33 3.98 6.66 5.96 7 8 C7.99 8.33 8.98 8.66 10 9 C10.33 10.65 10.66 12.3 11 14 C11.66 14 12.32 14 13 14 C12.67 16.97 12.34 19.94 12 23 C13.65 23 15.3 23 17 23 C16.67 24.32 16.34 25.64 16 27 C16.66 27 17.32 27 18 27 C18 26.01 18 25.02 18 24 C18.639375 23.896875 19.27875 23.79375 19.9375 23.6875 C20.618125 23.460625 21.29875 23.23375 22 23 C22.33 22.01 22.66 21.02 23 20 C24.65 20 26.3 20 28 20 C28 20.66 28 21.32 28 22 C26.68 22 25.36 22 24 22 C23.690625 22.78375 23.38125 23.5675 23.0625 24.375 C22 27 22 27 21 29 C21.99 29 22.98 29 24 29 C24 28.01 24 27.02 24 26 C24.99 26 25.98 26 27 26 C26.67 27.32 26.34 28.64 26 30 C27.98 30 29.96 30 32 30 C32 30.33 32 30.66 32 31 C21.03679897 32.05286839 21.03679897 32.05286839 16.4609375 29.6875 C9.90772454 24.18967339 7.9722299 17.31845189 5.74609375 9.33203125 C4.502523 5.44505881 3.02719636 2.75199669 0 0 Z " fill="#05E167" transform="translate(150,263)"/>
<path d="M0 0 C2.66397991 0.43996764 5.31206524 0.72193778 8 1 C8.33 2.65 8.66 4.3 9 6 C7.02 6 5.04 6 3 6 C3 5.34 3 4.68 3 4 C-3.74721176 3.4492072 -7.32014547 4.3648931 -13 8 C-13.99 8 -14.98 8 -16 8 C-16.33 8.66 -16.66 9.32 -17 10 C-17 8.68 -17 7.36 -17 6 C-16.34 6 -15.68 6 -15 6 C-15 5.34 -15 4.68 -15 4 C-17.97 3.505 -17.97 3.505 -21 3 C-14.92878255 -3.72170503 -8.16713704 -2.83349653 0 0 Z " fill="#02E35C" transform="translate(332,258)"/>
<path d="M0 0 C3.47349364 0.5814659 5.16707549 1.75959191 7.625 4.25 C8.21539062 4.83265625 8.80578125 5.4153125 9.4140625 6.015625 C13.48301382 11.10682518 13.48563814 16.41305877 13.37890625 22.703125 C12.64284882 29.10758349 9.66525982 33.78457136 4.875 38 C2 40 2 40 -1 41 C-0.67 40.01 -0.34 39.02 0 38 C0.99 38 1.98 38 3 38 C3 37.01 3 36.02 3 35 C3.99 35 4.98 35 6 35 C6 33.68 6 32.36 6 31 C6.66 31 7.32 31 8 31 C8.495 26.545 8.495 26.545 9 22 C8.34 22 7.68 22 7 22 C7 21.01 7 20.02 7 19 C7.66 19 8.32 19 9 19 C9.05395478 17.37536158 9.09277195 15.75021459 9.125 14.125 C9.15980469 12.76761719 9.15980469 12.76761719 9.1953125 11.3828125 C9.24324836 8.81193006 9.24324836 8.81193006 7 7 C5.03309626 6.32707499 5.03309626 6.32707499 2.875 5.875 C0.956875 5.441875 0.956875 5.441875 -1 5 C-0.67 3.35 -0.34 1.7 0 0 Z " fill="#17E274" transform="translate(183,205)"/>
<path d="M0 0 C2.29061928 3.23381545 2.26677196 6.1721942 1.68359375 10.03125 C0.27242986 14.09540201 -3.25997234 16.12998617 -7 18 C-12.50827425 18.36721828 -16.34105401 18.32781857 -21 15 C-22.375 11.8125 -22.375 11.8125 -23 9 C-19.535 10.98 -19.535 10.98 -16 13 C-16 13.66 -16 14.32 -16 15 C-14.68 15 -13.36 15 -12 15 C-12 14.34 -12 13.68 -12 13 C-9.33333333 13.66666667 -6.66666667 14.33333333 -4 15 C-4 14.34 -4 13.68 -4 13 C-4.99 13 -5.98 13 -7 13 C-6.71758359 11.53984709 -6.42373386 10.08190207 -6.125 8.625 C-5.96257812 7.81289062 -5.80015625 7.00078125 -5.6328125 6.1640625 C-5 4 -5 4 -3 2 C-2.01 2 -1.02 2 0 2 C0 1.34 0 0.68 0 0 Z " fill="#01E358" transform="translate(151,169)"/>
<path d="M0 0 C0.66 0 1.32 0 2 0 C2.58494783 5.89280777 2.8989641 10.58581719 -0.75 15.5 C-4.61696867 20.10911417 -8.12496027 22.63363261 -14.1484375 23.203125 C-19.20325681 23.30954225 -22.66249944 22.89166704 -27 20 C-28.875 17.8125 -28.875 17.8125 -30 16 C-28.02 16.66 -26.04 17.32 -24 18 C-24 18.66 -24 19.32 -24 20 C-21.69 20 -19.38 20 -17 20 C-17 20.66 -17 21.32 -17 22 C-15.68 22 -14.36 22 -13 22 C-13 20.68 -13 19.36 -13 18 C-12.01 18 -11.02 18 -10 18 C-10 17.01 -10 16.02 -10 15 C-8.68 15 -7.36 15 -6 15 C-6 15.66 -6 16.32 -6 17 C-5.34 17 -4.68 17 -4 17 C-4.33 15.02 -4.66 13.04 -5 11 C-4.01 11 -3.02 11 -2 11 C-2 9.68 -2 8.36 -2 7 C-1.01 7 -0.02 7 1 7 C0.67 4.69 0.34 2.38 0 0 Z " fill="#18E274" transform="translate(300,247)"/>
<path d="M0 0 C1.73046875 1.60546875 1.73046875 1.60546875 3 3 C2.34 3.33 1.68 3.66 1 4 C1 3.34 1 2.68 1 2 C-1.97 1.67 -4.94 1.34 -8 1 C-8 0.34 -8 -0.32 -8 -1 C-12.95 -1 -17.9 -1 -23 -1 C-22.67 -0.01 -22.34 0.98 -22 2 C-22.93972656 2.09087891 -22.93972656 2.09087891 -23.8984375 2.18359375 C-24.71570313 2.26738281 -25.53296875 2.35117188 -26.375 2.4375 C-27.18710937 2.51871094 -27.99921875 2.59992188 -28.8359375 2.68359375 C-31.04272805 2.89090114 -31.04272805 2.89090114 -33 4 C-33.33 4.99 -33.66 5.98 -34 7 C-35.32 7 -36.64 7 -38 7 C-38 7.66 -38 8.32 -38 9 C-38.99 9 -39.98 9 -41 9 C-40.67 9.99 -40.34 10.98 -40 12 C-41.65 12.33 -43.3 12.66 -45 13 C-42.25469557 6.56075192 -35.9993758 1.76408697 -29.9375 -1.5 C-21.29423358 -4.91781185 -8.16383771 -4.56048865 0 0 Z " fill="#31E488" transform="translate(308,133)"/>
<path d="M0 0 C3 1 3 1 4 3 C4.0955931 4.66444461 4.12984645 6.33281963 4.125 8 C4.12757813 8.886875 4.13015625 9.77375 4.1328125 10.6875 C4 13 4 13 3 15 C2.34 15 1.68 15 1 15 C0.67 15.66 0.34 16.32 0 17 C-0.33 15.68 -0.66 14.36 -1 13 C-1.53625 13.37125 -2.0725 13.7425 -2.625 14.125 C-5.94612897 15.34857383 -7.81090417 14.30463011 -11 13 C-10.34 12.67 -9.68 12.34 -9 12 C-9 11.34 -9 10.68 -9 10 C-8.071875 9.835 -7.14375 9.67 -6.1875 9.5 C-2.60843752 7.8157353 -2.41028278 7.3893481 -1.125 3.875 C-0.72720573 2.59017024 -0.34467435 1.30008745 0 0 Z " fill="#00E358" transform="translate(369,165)"/>
<path d="M0 0 C5.28 0.66 10.56 1.32 16 2 C16 2.99 16 3.98 16 5 C19.96 5.33 23.92 5.66 28 6 C28.33 5.34 28.66 4.68 29 4 C29.66 4.66 30.32 5.32 31 6 C30.195625 6.45375 29.39125 6.9075 28.5625 7.375 C25.91143428 8.74725665 25.91143428 8.74725665 25 11 C23.948125 10.34 22.89625 9.68 21.8125 9 C15.2566076 5.70452468 7.52280594 5.93910902 0.6015625 8.0234375 C-0.25695312 8.34570312 -1.11546875 8.66796875 -2 9 C-2 8.01 -2 7.02 -2 6 C-0.35 5.34 1.3 4.68 3 4 C3 3.34 3 2.68 3 2 C2.01 2 1.02 2 0 2 C0 1.34 0 0.68 0 0 Z " fill="#05E165" transform="translate(124,252)"/>
<path d="M0 0 C0.66 0.33 1.32 0.66 2 1 C2 2.32 2 3.64 2 5 C1.34 5 0.68 5 0 5 C-0.33 6.32 -0.66 7.64 -1 9 C-1.33 8.67 -1.66 8.34 -2 8 C-2 9.65 -2 11.3 -2 13 C-1.34 13 -0.68 13 0 13 C2.32086397 18.324335 1.91457003 22.43842552 1 28 C-2.47625147 24.75549863 -4.73254622 22.268147 -5.30078125 17.44921875 C-5.32607053 11.48937731 -4.90095584 7.24403555 -2 2 C-1.34 1.34 -0.68 0.68 0 0 Z " fill="#02E25C" transform="translate(309,261)"/>
<path d="M0 0 C1.24423737 -0.00065712 1.24423737 -0.00065712 2.51361084 -0.00132751 C5.25711554 0.00076358 8.00001018 0.02410957 10.7434082 0.04760742 C12.64483812 0.05320224 14.54627235 0.05747288 16.44770813 0.06047058 C21.45374478 0.07192835 26.45952056 0.10140359 31.4654541 0.13458252 C36.57304353 0.16526329 41.68067508 0.17897166 46.78833008 0.1940918 C56.81123119 0.22627236 66.83393863 0.27748001 76.85668945 0.34057617 C76.85668945 0.67057617 76.85668945 1.00057617 76.85668945 1.34057617 C75.31026764 1.35270645 75.31026764 1.35270645 73.73260498 1.36508179 C64.02108537 1.44253671 54.30970597 1.5302744 44.5983696 1.62810326 C39.60556573 1.678068 34.61278304 1.7243981 29.61987305 1.76245117 C24.8022409 1.79930162 19.98478584 1.84566105 15.16730499 1.89863968 C13.32852533 1.91718488 11.4897077 1.93229238 9.65087128 1.94392014 C7.0770399 1.96078038 4.50361423 1.98981483 1.92993164 2.02172852 C0.78733635 2.0249688 0.78733635 2.0249688 -0.37834167 2.02827454 C-4.11174069 2.08748651 -6.97223468 2.26231199 -10.14331055 4.34057617 C-9.81331055 6.32057617 -9.48331055 8.30057617 -9.14331055 10.34057617 C-9.80331055 10.34057617 -10.46331055 10.34057617 -11.14331055 10.34057617 C-11.50467283 3.95650923 -11.50467283 3.95650923 -10.14054871 1.63139343 C-6.97632653 -0.41364691 -3.64528957 -0.0501481 0 0 Z " fill="#141415" transform="translate(215.143310546875,420.659423828125)"/>
<path d="M0 0 C1.32 0.33 2.64 0.66 4 1 C4 1.66 4 2.32 4 3 C4.99 3 5.98 3 7 3 C7 4.32 7 5.64 7 7 C6.01 7 5.02 7 4 7 C4.26676204 8.98491642 4.26676204 8.98491642 5 11 C5.99 11.33 6.98 11.66 8 12 C8 13.65 8 15.3 8 17 C7.34 17 6.68 17 6 17 C6 16.01 6 15.02 6 14 C5.34 14 4.68 14 4 14 C3.896875 14.556875 3.79375 15.11375 3.6875 15.6875 C2.85821592 18.4769101 1.65700944 20.6139064 0 23 C-0.66 23 -1.32 23 -2 23 C-1.34 20.03 -0.68 17.06 0 14 C0.66 14 1.32 14 2 14 C1.690625 13.0925 1.38125 12.185 1.0625 11.25 C-1.29661017 4.03389831 -1.29661017 4.03389831 0 0 Z " fill="#00E443" transform="translate(225,238)"/>
<path d="M0 0 C1.98 0.495 1.98 0.495 4 1 C4.02578125 1.7734375 4.0515625 2.546875 4.078125 3.34375 C4.5537988 12.07885077 6.36536676 18.23844011 12 25 C10.35 25 8.7 25 7 25 C7 23.35 7 21.7 7 20 C6.34 20 5.68 20 5 20 C4.67 19.01 4.34 18.02 4 17 C3.01 16.67 2.02 16.34 1 16 C0.67 17.32 0.34 18.64 0 20 C-0.83854735 13.09811029 -1.01593448 6.88577812 0 0 Z " fill="#00E259" transform="translate(212,208)"/>
<path d="M0 0 C-0.33 0.66 -0.66 1.32 -1 2 C-1.99 2 -2.98 2 -4 2 C-4.226875 2.61875 -4.45375 3.2375 -4.6875 3.875 C-6.37929835 6.61410209 -7.99244161 7.05024472 -11 8 C-10.938125 9.093125 -10.87625 10.18625 -10.8125 11.3125 C-10.874375 12.529375 -10.93625 13.74625 -11 15 C-11.7425 15.63421875 -11.7425 15.63421875 -12.5 16.28125 C-14.88825105 19.01778766 -14.28471961 21.65518743 -14.1875 25.1875 C-14.16042969 26.45980469 -14.13335937 27.73210937 -14.10546875 29.04296875 C-14.05326172 30.50669922 -14.05326172 30.50669922 -14 32 C-17.52790249 26.70814626 -17.65792129 21.23145452 -17 15 C-15.18206807 8.87816897 -11.05855941 3.82719955 -6 0 C-2.51193059 -1.25596529 -2.51193059 -1.25596529 0 0 Z " fill="#2CE486" transform="translate(166,204)"/>
<path d="M0 0 C0.84111328 -0.00773438 1.68222656 -0.01546875 2.54882812 -0.0234375 C3.76795898 -0.01957031 3.76795898 -0.01957031 5.01171875 -0.015625 C5.74221436 -0.01336914 6.47270996 -0.01111328 7.2253418 -0.00878906 C9.60285545 0.28600149 11.24152294 1.07359391 13.3125 2.25 C12.6525 2.58 11.9925 2.91 11.3125 3.25 C10.3225 2.92 9.3325 2.59 8.3125 2.25 C5.98074086 2.15471177 3.64620026 2.12013812 1.3125 2.125 C0.075 2.12242187 -1.1625 2.11984375 -2.4375 2.1171875 C-5.69980773 2.10008698 -5.69980773 2.10008698 -8.6875 3.25 C-9.0175 3.91 -9.3475 4.57 -9.6875 5.25 C-12.45182384 5.85779107 -15.21950962 6.20883508 -18.0234375 6.58984375 C-20.91228885 7.30570281 -21.92864656 7.89540588 -23.6875 10.25 C-24.0175 11.24 -24.3475 12.23 -24.6875 13.25 C-24.0275 13.58 -23.3675 13.91 -22.6875 14.25 C-23.3475 14.25 -24.0075 14.25 -24.6875 14.25 C-25.0175 14.91 -25.3475 15.57 -25.6875 16.25 C-28.75 16.875 -28.75 16.875 -31.6875 17.25 C-28.928998 10.92666464 -22.93282418 5.13245732 -16.6875 2.25 C-11.02100927 0.28852244 -5.97230015 -0.05568578 0 0 Z " fill="#3CE593" transform="translate(396.6875,194.75)"/>
<path d="M0 0 C-1.72569639 1.13031603 -3.45571739 2.25403107 -5.1875 3.375 C-6.15042969 4.00148437 -7.11335938 4.62796875 -8.10546875 5.2734375 C-10.70482667 6.8239317 -13.18610693 7.91736657 -16 9 C-19.90674265 11.63477993 -21.45154239 13.59285142 -23 18 C-23.66 18.33 -24.32 18.66 -25 19 C-25 17.68 -25 16.36 -25 15 C-24.34 15 -23.68 15 -23 15 C-23.66 14.01 -24.32 13.02 -25 12 C-25 11.01 -25 10.02 -25 9 C-23.02 9 -21.04 9 -19 9 C-18.814375 7.7934375 -18.814375 7.7934375 -18.625 6.5625 C-18.41875 5.716875 -18.2125 4.87125 -18 4 C-14.78548731 2.39274365 -11.56387464 2.94251815 -8 3 C-8 2.01 -8 1.02 -8 0 C-4.90645403 -0.99435406 -3.09720845 -0.87840996 0 0 Z " fill="#12E36D" transform="translate(316,193)"/>
<path d="M0 0 C0 0.33 0 0.66 0 1 C-0.92232422 1.03867188 -0.92232422 1.03867188 -1.86328125 1.078125 C-6.91263658 1.22450493 -6.91263658 1.22450493 -10.8125 4 C-11.204375 4.66 -11.59625 5.32 -12 6 C-14.125 6.625 -14.125 6.625 -16 7 C-16.33 7.66 -16.66 8.32 -17 9 C-18.32 8.67 -19.64 8.34 -21 8 C-21 7.34 -21 6.68 -21 6 C-24.0831351 7.19899698 -27.06279492 8.47700477 -30 10 C-22.73793403 -0.14302642 -11.63198226 -0.77431835 0 0 Z " fill="#10E269" transform="translate(110,195)"/>
<path d="M0 0 C3.98490649 3.98490649 3.21545028 9.49616245 3.25 14.8125 C3.270625 15.59431641 3.29125 16.37613281 3.3125 17.18164062 C3.3483878 22.55135322 2.43202127 26.20635808 0 31 C-0.68707555 28.50935112 -1 26.62113708 -1 24 C-1.66 24 -2.32 24 -3 24 C-3.33 22.35 -3.66 20.7 -4 19 C-3.34 19 -2.68 19 -2 19 C-2 17.35 -2 15.7 -2 14 C-1.67 14.99 -1.34 15.98 -1 17 C-0.34 17 0.32 17 1 17 C0.67 11.39 0.34 5.78 0 0 Z " fill="#00E35A" transform="translate(240,151)"/>
<path d="M0 0 C0.625 1.8125 0.625 1.8125 1 4 C0.01 5.485 0.01 5.485 -1 7 C-2.37408137 12.5481776 -2.11249392 18.19876683 -2.0625 23.875 C-2.05798828 24.84953125 -2.05347656 25.8240625 -2.04882812 26.828125 C-2.03710906 29.21881434 -2.02070219 31.6093744 -2 34 C-6.13116856 27.80324716 -6.71444121 21.28513538 -6 14 C-4.87231094 8.61644333 -3.50355352 4.29847743 0 0 Z " fill="#1EE27F" transform="translate(262,146)"/>
<path d="M0 0 C5.91297113 5.76135648 5.91297113 5.76135648 6.16796875 9.390625 C6.2364036 19.40948734 6.2364036 19.40948734 4 24 C3.01 24.66 2.02 25.32 1 26 C0.89357879 20.35967592 1.29359853 15.00847115 2.07421875 9.41796875 C2.2563163 6.92522123 2.2563163 6.92522123 0.5 5.3125 C0.005 4.879375 -0.49 4.44625 -1 4 C-0.6875 1.8125 -0.6875 1.8125 0 0 Z " fill="#2AE47F" transform="translate(190,262)"/>
<path d="M0 0 C0.66 0 1.32 0 2 0 C2 0.66 2 1.32 2 2 C2.66 2 3.32 2 4 2 C4.66 2.66 5.32 3.32 6 4 C6.33 4 6.66 4 7 4 C7.13530844 7.06398451 7.2342407 10.12197126 7.3125 13.1875 C7.35439453 14.05181641 7.39628906 14.91613281 7.43945312 15.80664062 C7.52726393 20.39036459 7.52442341 22.33185206 4.60546875 26.05078125 C2 28 2 28 0 29 C0.66 27.02 1.32 25.04 2 23 C2.66 23 3.32 23 4 23 C3.71542568 20.47818712 3.42254942 17.95778804 3.125 15.4375 C3.04636719 14.73302734 2.96773437 14.02855469 2.88671875 13.30273438 C2.33366097 8.6868291 1.38804164 4.43823397 0 0 Z " fill="#2FE488" transform="translate(205,206)"/>
<path d="M0 0 C2.25 -0.25 2.25 -0.25 5 0 C7.3125 1.875 7.3125 1.875 9 4 C9 4.66 9 5.32 9 6 C10.32 6 11.64 6 13 6 C13.66 8.31 14.32 10.62 15 13 C16.32 12.67 17.64 12.34 19 12 C19 13.98 19 15.96 19 18 C2.62718497 6.2222802 2.62718497 6.2222802 0 0 Z " fill="#11E26C" transform="translate(262,185)"/>
<path d="M0 0 C0.83694346 2.86492183 1.03731951 5.21705304 0.875 8.1875 C0.83249989 16.84335644 4.00375729 22.6057603 9.4765625 29.15234375 C12.15197126 32.39713437 12.11064638 34.4844116 12.0625 38.625 C12.05347656 39.62789062 12.04445313 40.63078125 12.03515625 41.6640625 C12.02355469 42.43492187 12.01195312 43.20578125 12 44 C11.67 44 11.34 44 11 44 C11 41.03 11 38.06 11 35 C10.34 35 9.68 35 9 35 C8.938125 34.21625 8.87625 33.4325 8.8125 32.625 C8.544375 31.75875 8.27625 30.8925 8 30 C5.52363988 28.62533375 5.52363988 28.62533375 3 28 C3 26.35 3 24.7 3 23 C2.01 22.67 1.02 22.34 0 22 C-2.28571429 6.85714286 -2.28571429 6.85714286 0 0 Z " fill="#4CE6A0" transform="translate(291,212)"/>
<path d="M0 0 C1.89551022 -0.05441656 3.7914792 -0.09298035 5.6875 -0.125 C6.74324219 -0.14820313 7.79898438 -0.17140625 8.88671875 -0.1953125 C12.02251859 0.00141271 14.17645373 0.66942346 17 2 C17 3.32 17 4.64 17 6 C15.02 6.99 13.04 7.98 11 9 C10.01 8.01 9.02 7.02 8 6 C7.01 7.485 7.01 7.485 6 9 C5.7525 7.88625 5.505 6.7725 5.25 5.625 C4.41925542 1.94462512 4.41925542 1.94462512 1.921875 0.7734375 C1.28765625 0.51820313 0.6534375 0.26296875 0 0 Z " fill="#07E35C" transform="translate(166,202)"/>
<path d="M0 0 C2.64 0 5.28 0 8 0 C8 0.66 8 1.32 8 2 C10.64 2 13.28 2 16 2 C16 1.34 16 0.68 16 0 C18.96175123 0.61277612 20.38058783 1.25372522 23 3 C22.01 3 21.02 3 20 3 C20 3.66 20 4.32 20 5 C21.98 5 23.96 5 26 5 C26 5.33 26 5.66 26 6 C17.02190753 6.47184136 9.09478515 6.30674006 1 2 C0.67 1.34 0.34 0.68 0 0 Z " fill="#14E460" transform="translate(376,260)"/>
<path d="M0 0 C1.32 0.33 2.64 0.66 4 1 C4 2.32 4 3.64 4 5 C5.65 5 7.3 5 9 5 C9 6.65 9 8.3 9 10 C7 9 5 8 3 7 C3 7.99 3 8.98 3 10 C3.99 10 4.98 10 6 10 C6.33 11.32 6.66 12.64 7 14 C3.55571735 12.55218207 1.63869038 10.72305391 -0.75 7.875 C-1.36359375 7.15054688 -1.9771875 6.42609375 -2.609375 5.6796875 C-3.06828125 5.12539062 -3.5271875 4.57109375 -4 4 C-3.01 3.67 -2.02 3.34 -1 3 C-0.67 2.01 -0.34 1.02 0 0 Z " fill="#0CE366" transform="translate(181,181)"/>
<path d="M0 0 C0.33 0.99 0.66 1.98 1 3 C1.99 3.33 2.98 3.66 4 4 C1.4091685 7.6114621 -0.06960294 9.59865225 -4.1875 11.375 C-12.41768225 12.7242102 -18.01941884 12.85605646 -25 8 C-23.375 7.3125 -23.375 7.3125 -21 7 C-18.97481509 7.9479589 -16.97522846 8.95191959 -15 10 C-12.26427415 10.69907414 -12.26427415 10.69907414 -10 11 C-10 10.01 -10 9.02 -10 8 C-7.03 7.34 -4.06 6.68 -1 6 C-1.020625 5.195625 -1.04125 4.39125 -1.0625 3.5625 C-1 1 -1 1 0 0 Z " fill="#13E07A" transform="translate(335,282)"/>
<path d="M0 0 C0.33 0.66 0.66 1.32 1 2 C0.67 2.66 0.34 3.32 0 4 C-0.27695822 7.01576733 -0.44652938 10.03138112 -0.62109375 13.0546875 C-0.98552449 15.88747902 -1.65788668 17.53137389 -3 20 C-3.16750414 22.66709069 -3.16750414 22.66709069 -3 25 C-5.99363774 22.00636226 -6.17154648 18.87474515 -6.3125 14.75 C-6.26437882 8.92733664 -4.10771441 4.10771441 0 0 Z " fill="#1AE279" transform="translate(309,209)"/>
<path d="M0 0 C10.24636173 2.39361729 17.99935098 7.18086431 24 16 C24 16.66 24 17.32 24 18 C23.01 18 22.02 18 21 18 C21 18.99 21 19.98 21 21 C20.01 21 19.02 21 18 21 C19 17 19 17 20 13 C18.68 12.67 17.36 12.34 16 12 C16 11.01 16 10.02 16 9 C14.02 9 12.04 9 10 9 C9.67 7.35 9.34 5.7 9 4 C8.071875 3.896875 7.14375 3.79375 6.1875 3.6875 C2.85034764 2.96772204 2.16813468 2.42857128 0 0 Z " fill="#17E17E" transform="translate(403,196)"/>
<path d="M0 0 C2 1 2 1 3.10546875 3.59765625 C4.96373629 10.66556466 5.45401194 19.60547238 2.5 26.4375 C2.005 27.283125 1.51 28.12875 1 29 C0.67 29 0.34 29 0 29 C0 19.43 0 9.86 0 0 Z " fill="#0BDF77" transform="translate(324,151)"/>
<path d="M0 0 C1.32 0.33 2.64 0.66 4 1 C4 1.66 4 2.32 4 3 C4.639375 2.649375 5.27875 2.29875 5.9375 1.9375 C11.03154894 0.37809726 16.00662664 1.33554221 21 3 C18.06827347 6.02629835 15.77948961 7.35513572 11.625 7.625 C6.94139229 7.4445595 4.52181525 5.58214933 1.21484375 2.41015625 C0 1 0 1 0 0 Z " fill="#19E275" transform="translate(348,180)"/>
<path d="M0 0 C3.465 1.98 3.465 1.98 7 4 C7 4.66 7 5.32 7 6 C8.32 6 9.64 6 11 6 C11 5.34 11 4.68 11 4 C15 5 15 5 19 6 C19 5.34 19 4.68 19 4 C19.99 4.33 20.98 4.66 22 5 C17.94008343 8.24793326 15.20694397 9.6279507 9.9609375 9.31640625 C6.76973452 8.80149103 4.62733392 7.87666709 2 6 C0.625 2.8125 0.625 2.8125 0 0 Z " fill="#22E382" transform="translate(128,178)"/>
<path d="M0 0 C0.80824219 0.10183594 1.61648437 0.20367187 2.44921875 0.30859375 C3.06410156 0.39238281 3.67898437 0.47617188 4.3125 0.5625 C4.3125 0.8925 4.3125 1.2225 4.3125 1.5625 C3.69761719 1.61148438 3.08273438 1.66046875 2.44921875 1.7109375 C1.64097656 1.78570312 0.83273438 1.86046875 0 1.9375 C-1.20076172 2.04191406 -1.20076172 2.04191406 -2.42578125 2.1484375 C-4.95974441 2.45814426 -4.95974441 2.45814426 -7.6875 4.5625 C-6.6975 4.8925 -5.7075 5.2225 -4.6875 5.5625 C-4.6875 6.5525 -4.6875 7.5425 -4.6875 8.5625 C-5.63625 8.52125 -6.585 8.48 -7.5625 8.4375 C-10.78994856 8.21276182 -10.78994856 8.21276182 -12.6875 10.5625 C-13.14561675 12.53485333 -13.14561675 12.53485333 -13.3125 14.6875 C-13.43625 15.96625 -13.56 17.245 -13.6875 18.5625 C-14.0175 18.5625 -14.3475 18.5625 -14.6875 18.5625 C-15.2717416 14.03694602 -15.65430659 10.16604748 -13.234375 6.15234375 C-9.11081229 1.37906003 -6.49090704 -0.84664005 0 0 Z " fill="#29E47F" transform="translate(141.6875,159.4375)"/>
<path d="M0 0 C0.99 0.33 1.98 0.66 3 1 C-1.5091983 6.07284809 -6.02427023 9.47025942 -12.90234375 10.38671875 C-19.32085007 10.62144345 -24.78769057 9.99610389 -30 6 C-30.66 5.01 -31.32 4.02 -32 3 C-31.484375 3.28875 -30.96875 3.5775 -30.4375 3.875 C-27.37643275 5.28780027 -24.25055082 6.1248517 -21 7 C-21 7.66 -21 8.32 -21 9 C-18.03 9 -15.06 9 -12 9 C-12 8.34 -12 7.68 -12 7 C-9.36 6.67 -6.72 6.34 -4 6 C-4 5.01 -4 4.02 -4 3 C-2.68 3 -1.36 3 0 3 C0 2.01 0 1.02 0 0 Z " fill="#34E38C" transform="translate(343,238)"/>
<path d="M0 0 C1.32 0.33 2.64 0.66 4 1 C4 1.99 4 2.98 4 4 C4.66 4 5.32 4 6 4 C6.33 6.31 6.66 8.62 7 11 C5.68 10.67 4.36 10.34 3 10 C3 8.68 3 7.36 3 6 C2.01 6.495 2.01 6.495 1 7 C0.34444881 9.52733235 0.34444881 9.52733235 0 12 C-1.32 12 -2.64 12 -4 12 C-4.1875 9.6875 -4.1875 9.6875 -4 7 C-2.5625 5.4375 -2.5625 5.4375 -1 4 C-0.28552357 1.89667109 -0.28552357 1.89667109 0 0 Z " fill="#00E33E" transform="translate(213,224)"/>
<path d="M0 0 C1.34096777 2.68193553 1.01150432 5.08407792 0.96875 8.0234375 C1.00227898 10.14414565 1.32910345 11.98731036 2 14 C2.66 14 3.32 14 4 14 C3.67 15.32 3.34 16.64 3 18 C2.34 18 1.68 18 1 18 C0.67 18.99 0.34 19.98 0 21 C-3.0960947 15.96884611 -3.8016521 11.76572856 -3 6 C-1.5 2.4375 -1.5 2.4375 0 0 Z " fill="#06E25D" transform="translate(200,240)"/>
<path d="M0 0 C0.70125 0.680625 1.4025 1.36125 2.125 2.0625 C2.125 2.3925 2.125 2.7225 2.125 3.0625 C-1.505 3.0625 -5.135 3.0625 -8.875 3.0625 C-7.885 1.7425 -6.895 0.4225 -5.875 -0.9375 C-7.73125 -0.4115625 -7.73125 -0.4115625 -9.625 0.125 C-12.778292 1.01843273 -14.74274164 1.07131294 -17.875 0.0625 C-17.875 0.7225 -17.875 1.3825 -17.875 2.0625 C-20.185 2.0625 -22.495 2.0625 -24.875 2.0625 C-24.875 1.4025 -24.875 0.7425 -24.875 0.0625 C-17.64351542 -2.69235127 -6.78462496 -4.45291614 0 0 Z " fill="#0CE369" transform="translate(187.875,258.9375)"/>
<path d="M0 0 C-0.99 0.33 -1.98 0.66 -3 1 C-3 1.99 -3 2.98 -3 4 C0.5219721 4.08004482 3.61981469 4.04005702 7 3 C7 3.66 7 4.32 7 5 C9.31 5 11.62 5 14 5 C9.3028839 8.13141073 4.49554455 7.69881616 -1 7 C-4.27550265 5.68337639 -7.12160603 4.03522806 -10 2 C-6.48375245 0.05841983 -4.0284349 -0.18311068 0 0 Z " fill="#18E178" transform="translate(167,241)"/>
<path d="M0 0 C0.33 0 0.66 0 1 0 C1 4.62 1 9.24 1 14 C1.99 14.33 2.98 14.66 4 15 C4 17.31 4 19.62 4 22 C4.99 22.33 5.98 22.66 7 23 C7 24.98 7 26.96 7 29 C2.46157678 25.17816992 0.58817249 21.82205527 0 16 C-0.20134953 10.66626442 -0.11653589 5.33475412 0 0 Z " fill="#1CE183" transform="translate(69,222)"/>
<path d="M0 0 C3.19184026 3.19184026 3.18024633 6.17527243 3.25 10.5 C3.27578125 11.4590625 3.3015625 12.418125 3.328125 13.40625 C2.95389709 16.36443253 2.30935919 17.20113073 0 19 C-0.33 17.35 -0.66 15.7 -1 14 C-0.34 14 0.32 14 1 14 C1 12.35 1 10.7 1 9 C-0.32 8.67 -1.64 8.34 -3 8 C-3 6.68 -3 5.36 -3 4 C-2.01 4 -1.02 4 0 4 C0 2.68 0 1.36 0 0 Z " fill="#18E16F" transform="translate(232,241)"/>
<path d="M0 0 C8.14313352 -0.69665591 14.15314684 0.35090218 21 5 C21.33 5.66 21.66 6.32 22 7 C20.68 6.67 19.36 6.34 18 6 C18 6.66 18 7.32 18 8 C17.34 8 16.68 8 16 8 C15.67 8.99 15.34 9.98 15 11 C12.70620251 7.55930376 12 6.27709699 12 2 C8.04 1.67 4.08 1.34 0 1 C0 0.67 0 0.34 0 0 Z " fill="#0EE16A" transform="translate(322,202)"/>
<path d="M0 0 C0.66 0.33 1.32 0.66 2 1 C2.33 1.99 2.66 2.98 3 4 C5.01508358 4.73323796 5.01508358 4.73323796 7 5 C7 6.32 7 7.64 7 9 C8.65 9 10.3 9 12 9 C12.33 8.01 12.66 7.02 13 6 C13.66 6 14.32 6 15 6 C15 6.99 15 7.98 15 9 C14.34 9.66 13.68 10.32 13 11 C13.66 11.33 14.32 11.66 15 12 C15 12.66 15 13.32 15 14 C10.12450824 12.69891569 7.2765221 10.82914252 3.625 7.375 C2.75101562 6.55773437 1.87703125 5.74046875 0.9765625 4.8984375 C0.32429688 4.27195313 -0.32796875 3.64546875 -1 3 C-0.67 2.01 -0.34 1.02 0 0 Z " fill="#26E386" transform="translate(77,250)"/>
<path d="M0 0 C4.18470656 3.85433499 6.66963865 6.53710514 7.21875 12.29296875 C7.42610621 18.00390445 6.63928856 21.94136359 4 27 C3.4375 25.0625 3.4375 25.0625 3 23 C3.33 22.67 3.66 22.34 4 22 C4.09968672 19.89778307 4.12968203 17.79207396 4.125 15.6875 C4.12757813 14.53636719 4.13015625 13.38523438 4.1328125 12.19921875 C4.02438878 9.58748263 3.77059738 7.47692016 3 5 C2.01 5 1.02 5 0 5 C0 3.35 0 1.7 0 0 Z " fill="#3EE397" transform="translate(344,209)"/>
<path d="M0 0 C0.66 0 1.32 0 2 0 C4.01512227 4.21865028 4.41354068 8.20885432 4.625 12.8125 C4.66367187 13.50537109 4.70234375 14.19824219 4.7421875 14.91210938 C4.83573568 16.60767015 4.91892364 18.30379712 5 20 C4.34 20.33 3.68 20.66 3 21 C2.67 21.99 2.34 22.98 2 24 C1.34 24 0.68 24 0 24 C0.16242188 23.45859375 0.32484375 22.9171875 0.4921875 22.359375 C2.04578606 15.14111706 1.11333356 7.23666816 0 0 Z " fill="#33E490" transform="translate(281,203)"/>
<path d="M0 0 C0.33 0 0.66 0 1 0 C1.24862931 2.98355176 1.18991433 4.64865849 -0.25 7.3125 C-2 9 -2 9 -6 9 C-6.28875 9.61875 -6.5775 10.2375 -6.875 10.875 C-8 13 -8 13 -10 15 C-10.99 15 -11.98 15 -13 15 C-11.45873646 11.14243754 -9.05481733 9.05723851 -5.9375 6.375 C-2.48348875 3.56907909 -2.48348875 3.56907909 0 0 Z " fill="#23E282" transform="translate(280,227)"/>
<path d="M0 0 C0.66 0 1.32 0 2 0 C2.76681614 9.57668161 2.76681614 9.57668161 0.88671875 13.06640625 C-0.5 14.6875 -0.5 14.6875 -3 17 C-5 14 -5 14 -5 11 C-4.01 11 -3.02 11 -2 11 C-2 9.68 -2 8.36 -2 7 C-1.01 7 -0.02 7 1 7 C0.67 4.69 0.34 2.38 0 0 Z " fill="#02E164" transform="translate(300,247)"/>
<path d="M0 0 C4.09621053 2.28905883 7.53415091 4.85655548 11 8 C11 8.66 11 9.32 11 10 C10.34 10 9.68 10 9 10 C8.67 11.65 8.34 13.3 8 15 C7.67 14.01 7.34 13.02 7 12 C6.34 12 5.68 12 5 12 C4.67 9.36 4.34 6.72 4 4 C2.68 3.67 1.36 3.34 0 3 C0 2.01 0 1.02 0 0 Z " fill="#0FE26A" transform="translate(122,200)"/>
<path d="M0 0 C1.670625 0.2475 1.670625 0.2475 3.375 0.5 C8.25510338 1.12094505 13.08861948 1.09057874 18 1 C11.48996877 5.34002082 3.76793884 4.50239185 -3.75 3.5 C-4.86375 3.2525 -4.86375 3.2525 -6 3 C-6 2.67 -6 2.34 -6 2 C-4.02 1.67 -2.04 1.34 0 1 C0 0.67 0 0.34 0 0 Z " fill="#1CE370" transform="translate(99,262)"/>
<path d="M0 0 C4.95 0 9.9 0 15 0 C15 0.66 15 1.32 15 2 C12.36 2.33 9.72 2.66 7 3 C7 3.33 7 3.66 7 4 C4.03 4 1.06 4 -2 4 C-2 3.34 -2 2.68 -2 2 C-1.34 2 -0.68 2 0 2 C0 1.34 0 0.68 0 0 Z " fill="#00E454" transform="translate(94,260)"/>
<path d="M0 0 C0.68383255 0.00424484 1.3676651 0.00848969 2.07221985 0.01286316 C4.25297686 0.02963522 6.43280434 0.06728218 8.61328125 0.10546875 C10.0930856 0.12051761 11.57290445 0.13420567 13.05273438 0.14648438 C16.67738461 0.17953306 20.30149219 0.23130429 23.92578125 0.29296875 C23.92578125 0.62296875 23.92578125 0.95296875 23.92578125 1.29296875 C22.63945801 1.32269775 22.63945801 1.32269775 21.32714844 1.35302734 C18.13630483 1.43126396 14.94583385 1.51796218 11.75537109 1.61035156 C10.37622882 1.64856213 8.99698958 1.68342877 7.61767578 1.71484375 C5.63161158 1.76066499 3.64586446 1.81963138 1.66015625 1.87890625 C0.46616211 1.91032715 -0.72783203 1.94174805 -1.95800781 1.97412109 C-4.88196414 2.27329745 -6.60149486 2.76758713 -9.07421875 4.29296875 C-8.74421875 6.27296875 -8.41421875 8.25296875 -8.07421875 10.29296875 C-8.73421875 10.29296875 -9.39421875 10.29296875 -10.07421875 10.29296875 C-10.43752591 3.87454217 -10.43752591 3.87454217 -9.00463867 1.58081055 C-6.047796 -0.39178906 -3.51792632 -0.04307665 0 0 Z " fill="#141415" transform="translate(214.07421875,420.70703125)"/>
<path d="M0 0 C1.32 0.33 2.64 0.66 4 1 C0.13551616 6.76744937 -3.97731846 11.41894611 -10 15 C-10.66 15 -11.32 15 -12 15 C-12 14.01 -12 13.02 -12 12 C-10.68 12 -9.36 12 -8 12 C-8 11.34 -8 10.68 -8 10 C-7.01 10 -6.02 10 -5 10 C-5 9.34 -5 8.68 -5 8 C-4.34 8 -3.68 8 -3 8 C-2.690625 7.05125 -2.38125 6.1025 -2.0625 5.125 C-1 2 -1 2 0 0 Z " fill="#15DF7C" transform="translate(423,247)"/>
<path d="M0 0 C0.33 0 0.66 0 1 0 C1 1.65 1 3.3 1 5 C2.65 5 4.3 5 6 5 C6.33 6.32 6.66 7.64 7 9 C4.625 9.1875 4.625 9.1875 2 9 C-0.29013653 5.5647952 -0.17842973 4.014669 0 0 Z M7 0 C7.99 0 8.98 0 10 0 C10 1.98 10 3.96 10 6 C9.01 6 8.02 6 7 6 C7 4.02 7 2.04 7 0 Z " fill="#00E458" transform="translate(260,176)"/>
<path d="M0 0 C1.10408203 0.01353516 1.10408203 0.01353516 2.23046875 0.02734375 C4.0287888 0.05069856 5.82693911 0.08656164 7.625 0.125 C7.625 0.455 7.625 0.785 7.625 1.125 C6.74457031 1.16238281 5.86414063 1.19976562 4.95703125 1.23828125 C3.79558594 1.30402344 2.63414062 1.36976563 1.4375 1.4375 C0.28894531 1.49550781 -0.85960937 1.55351562 -2.04296875 1.61328125 C-5.57320616 2.15543963 -7.47593788 3.09715862 -10.375 5.125 C-13.375 7.125 -13.375 7.125 -16.0625 6.75 C-16.825625 6.54375 -17.58875 6.3375 -18.375 6.125 C-13.20184789 0.15597833 -7.4208143 -0.17444952 0 0 Z " fill="#4CE89A" transform="translate(207.375,129.875)"/>
<path d="M0 0 C0 1.98 0 3.96 0 6 C-4.455 7.485 -4.455 7.485 -9 9 C-9 5 -9 5 -7.5390625 3.515625 C-6.90742188 3.09796875 -6.27578125 2.6803125 -5.625 2.25 C-4.99851562 1.82203125 -4.37203125 1.3940625 -3.7265625 0.953125 C-2 0 -2 0 0 0 Z " fill="#00E544" transform="translate(277,237)"/>
<path d="M0 0 C0.88009925 2.45090931 1.11784986 3.65761515 0.2578125 6.15625 C-0.11601562 6.9296875 -0.48984375 7.703125 -0.875 8.5 C-3.36901351 14.26203122 -3.78615584 19.77713483 -4 26 C-4.33 26 -4.66 26 -5 26 C-5.54992842 16.15017092 -5.73261543 8.51702863 0 0 Z " fill="#41E49D" transform="translate(177,147)"/>
<path d="M0 0 C1.24523437 0.01804688 2.49046875 0.03609375 3.7734375 0.0546875 C5.18496094 0.08949219 5.18496094 0.08949219 6.625 0.125 C6.625 0.455 6.625 0.785 6.625 1.125 C6.05652344 1.16238281 5.48804687 1.19976562 4.90234375 1.23828125 C0.92076863 1.57728013 -2.4508602 1.97657149 -6.0625 3.75 C-9.76358906 5.28630112 -11.56418397 5.14741406 -15.375 4.125 C-11.0899826 -0.1600174 -5.77533274 -0.10896854 0 0 Z " fill="#28E386" transform="translate(103.375,194.875)"/>
<path d="M0 0 C4.49092377 2.37754788 7.52235713 5.3606063 11 9 C10.67 9.66 10.34 10.32 10 11 C9.34 10.67 8.68 10.34 8 10 C8 10.66 8 11.32 8 12 C7.34 12 6.68 12 6 12 C4.23537317 8.91190305 4 7.76687864 4 4 C2.68 3.67 1.36 3.34 0 3 C0 2.01 0 1.02 0 0 Z " fill="#0BE267" transform="translate(311,136)"/>
<path d="M0 0 C0.99 0.66 1.98 1.32 3 2 C2.195625 2.45375 1.39125 2.9075 0.5625 3.375 C-2.08856572 4.74725665 -2.08856572 4.74725665 -3 7 C-4.093125 6.360625 -5.18625 5.72125 -6.3125 5.0625 C-11.38220676 2.48668849 -16.39014692 2.2062446 -22 2 C-22 1.67 -22 1.34 -22 1 C-14.58982977 0.88540974 -7.35793733 1.08839714 0 2 C0 1.34 0 0.68 0 0 Z " fill="#2CE48A" transform="translate(152,256)"/>
<path d="M0 0 C0.7425 0.763125 1.485 1.52625 2.25 2.3125 C4.823554 4.95571199 4.823554 4.95571199 7.3125 6.6875 C7.869375 7.120625 8.42625 7.55375 9 8 C9 8.66 9 9.32 9 10 C5.7 10 2.4 10 -1 10 C-0.649375 9.0925 -0.29875 8.185 0.0625 7.25 C0.96468779 4.12241564 1.13381507 2.94791919 0 0 Z " fill="#0DE167" transform="translate(143,248)"/>
<path d="M0 0 C3.98490649 3.98490649 3.21545028 9.49616245 3.25 14.8125 C3.270625 15.59431641 3.29125 16.37613281 3.3125 17.18164062 C3.3483878 22.55135322 2.43202127 26.20635808 0 31 C-0.625 29.25 -0.625 29.25 -1 27 C-0.68160156 26.45214844 -0.36320313 25.90429688 -0.03515625 25.33984375 C1.42610372 22.03684479 1.25152513 18.8541008 1.1875 15.3125 C1.18685547 14.62349609 1.18621094 13.93449219 1.18554688 13.22460938 C1.44536147 9.82506324 1.44536147 9.82506324 0 7 C-0.04092937 4.66702567 -0.04241723 2.33294775 0 0 Z " fill="#20DF89" transform="translate(240,151)"/>
<path d="M0 0 C0.66 0.33 1.32 0.66 2 1 C2 2.32 2 3.64 2 5 C1.34 5 0.68 5 0 5 C-0.33 6.32 -0.66 7.64 -1 9 C-1.33 8.67 -1.66 8.34 -2 8 C-2.66 11.96 -3.32 15.92 -4 20 C-4.33 20 -4.66 20 -5 20 C-5.33165262 13.20726311 -5.33098087 8.0213885 -2 2 C-1.34 1.34 -0.68 0.68 0 0 Z " fill="#30E483" transform="translate(309,261)"/>
<path d="M0 0 C0.99 1.32 1.98 2.64 3 4 C-3.14285714 9.57142857 -3.14285714 9.57142857 -8 10 C-7.67 7.69 -7.34 5.38 -7 3 C-6.34 3 -5.68 3 -5 3 C-4.67 3.66 -4.34 4.32 -4 5 C-3.34 5 -2.68 5 -2 5 C-1.34 3.35 -0.68 1.7 0 0 Z " fill="#0DE167" transform="translate(228,259)"/>
<path d="M0 0 C0 1.65 0 3.3 0 5 C-0.99 5.33 -1.98 5.66 -3 6 C-3.70211894 7.65204456 -4.36971413 9.31923769 -5 11 C-5.99 11.495 -5.99 11.495 -7 12 C-8.13350534 14.01669827 -8.13350534 14.01669827 -9 16 C-10 14 -10 14 -9.3984375 12.01171875 C-4.1092437 0 -4.1092437 0 0 0 Z " fill="#21E188" transform="translate(80,205)"/>
<path d="M0 0 C2.31 0.33 4.62 0.66 7 1 C7 1.66 7 2.32 7 3 C8.98 2.34 10.96 1.68 13 1 C13 2.32 13 3.64 13 5 C13.66 5.33 14.32 5.66 15 6 C14.67 6.99 14.34 7.98 14 9 C7.07 5.04 7.07 5.04 0 1 C0 0.67 0 0.34 0 0 Z " fill="#2CE488" transform="translate(188,195)"/>
<path d="M0 0 C0.33 0 0.66 0 1 0 C1 1.65 1 3.3 1 5 C2.65 5 4.3 5 6 5 C5.67 3.68 5.34 2.36 5 1 C6.65 1 8.3 1 10 1 C9.34 2.98 8.68 4.96 8 7 C6.35 7 4.7 7 3 7 C3 7.66 3 8.32 3 9 C2.01 8.67 1.02 8.34 0 8 C0 5.36 0 2.72 0 0 Z " fill="#02E263" transform="translate(128,170)"/>
<path d="M0 0 C0.33 0.99 0.66 1.98 1 3 C-0.52994792 4.20442708 -2.05989583 5.40885417 -3.58984375 6.61328125 C-5.27155077 8.05683091 -5.27155077 8.05683091 -6 11 C-8.97 11 -11.94 11 -15 11 C-13.0198783 9.0198783 -11.69518034 8.31427797 -9.1875 7.1875 C-5.30861811 5.31517996 -2.8495731 3.20576974 0 0 Z " fill="#0BDF74" transform="translate(355,249)"/>
<path d="M0 0 C0 0.66 0 1.32 0 2 C-0.78375 2.45375 -1.5675 2.9075 -2.375 3.375 C-5.1235949 5.07651113 -5.87921032 6.04519084 -7 9 C-6.34 9.33 -5.68 9.66 -5 10 C-5.66 10 -6.32 10 -7 10 C-7.33 10.66 -7.66 11.32 -8 12 C-11.0625 12.625 -11.0625 12.625 -14 13 C-12.53438126 9.60312324 -10.63352456 7.39277314 -8 4.8125 C-6.948125 3.77029297 -6.948125 3.77029297 -5.875 2.70703125 C-3.81412182 0.83077341 -2.80380727 0 0 0 Z " fill="#2BE38A" transform="translate(379,199)"/>
<path d="M0 0 C0.55171875 0.14308594 1.1034375 0.28617187 1.671875 0.43359375 C4.18714769 1.0455309 6.71042508 1.56126811 9.25 2.0625 C10.14203125 2.23910156 11.0340625 2.41570312 11.953125 2.59765625 C12.62859375 2.73042969 13.3040625 2.86320312 14 3 C14.33 3.99 14.66 4.98 15 6 C12.36 6 9.72 6 7 6 C7 5.34 7 4.68 7 4 C5.824375 3.7834375 5.824375 3.7834375 4.625 3.5625 C2 3 2 3 0 2 C0 1.34 0 0.68 0 0 Z " fill="#00E264" transform="translate(377,256)"/>
<path d="M0 0 C3 3 3 3 3.328125 5.41015625 C3.30234375 6.28542969 3.2765625 7.16070312 3.25 8.0625 C3.23453125 8.94035156 3.2190625 9.81820312 3.203125 10.72265625 C3 13 3 13 2 15 C1.34 15 0.68 15 0 15 C-0.33 15.66 -0.66 16.32 -1 17 C-1.66 15.02 -2.32 13.04 -3 11 C-1.68 10.34 -0.36 9.68 1 9 C0.67 6.03 0.34 3.06 0 0 Z " fill="#30E581" transform="translate(370,165)"/>
<path d="M0 0 C5.37456249 8.06184373 4.20260756 17.72507596 4 27 C3.67 27 3.34 27 3 27 C2.93941406 26.00097656 2.87882813 25.00195312 2.81640625 23.97265625 C2.73261719 22.68230469 2.64882812 21.39195312 2.5625 20.0625 C2.48128906 18.77472656 2.40007812 17.48695313 2.31640625 16.16015625 C2.35080812 13.13976043 2.35080812 13.13976043 1 12 C0.76572222 9.98405418 0.58663876 7.961526 0.4375 5.9375 C0.35371094 4.83277344 0.26992187 3.72804687 0.18359375 2.58984375 C0.09271484 1.30787109 0.09271484 1.30787109 0 0 Z " fill="#25E285" transform="translate(136,215)"/>
<path d="M0 0 C-0.33 0.66 -0.66 1.32 -1 2 C-1.99 2 -2.98 2 -4 2 C-4.226875 2.61875 -4.45375 3.2375 -4.6875 3.875 C-6.39316009 6.6365449 -7.96972909 7.01516195 -11 8 C-11.99 8.495 -11.99 8.495 -13 9 C-11.43903239 5.16853404 -9.08588695 2.71851946 -6 0 C-3.3047908 -1.07808368 -2.60944584 -1.30472292 0 0 Z " fill="#1DE17E" transform="translate(166,204)"/>
<path d="M0 0 C1.32 0.33 2.64 0.66 4 1 C2.576875 2.0828125 2.576875 2.0828125 1.125 3.1875 C-1.70901527 5.52256892 -2.82843 7.48529 -4 11 C-4.99 11.495 -4.99 11.495 -6 12 C-6 10.68 -6 9.36 -6 8 C-5.34 8 -4.68 8 -4 8 C-4.66 7.01 -5.32 6.02 -6 5 C-6 4.01 -6 3.02 -6 2 C-4.02 2 -2.04 2 0 2 C0 1.34 0 0.68 0 0 Z " fill="#1CE27B" transform="translate(297,200)"/>
<path d="M0 0 C0 0.66 0 1.32 0 2 C-0.66 2 -1.32 2 -2 2 C-1.67 3.65 -1.34 5.3 -1 7 C-4.4375 6.1875 -4.4375 6.1875 -8 5 C-8.33 4.01 -8.66 3.02 -9 2 C-5.86501708 0.14223235 -3.62528568 -0.20140476 0 0 Z " fill="#03E261" transform="translate(158,258)"/>
<path d="M0 0 C0.33 1.32 0.66 2.64 1 4 C1.66 4 2.32 4 3 4 C3 5.65 3 7.3 3 9 C2.34 9 1.68 9 1 9 C0.67 8.34 0.34 7.68 0 7 C-0.66 7 -1.32 7 -2 7 C-2.28875 7.969375 -2.5775 8.93875 -2.875 9.9375 C-4 13 -4 13 -6 14 C-5.4454626 10.67277559 -4.75986957 7.8986087 -3 5 C-2.34 4.67 -1.68 4.34 -1 4 C-0.34786708 1.97536745 -0.34786708 1.97536745 0 0 Z " fill="#02E360" transform="translate(76,211)"/>
<path d="M0 0 C-0.66 3.96 -1.32 7.92 -2 12 C-6 8 -6 8 -6.4375 5.4375 C-5.69126454 1.27990244 -4.19712735 0 0 0 Z " fill="#00E357" transform="translate(312,266)"/>
<path d="M0 0 C10.55808656 2.89066059 10.55808656 2.89066059 15 6 C14.67 6.99 14.34 7.98 14 9 C12.68 9 11.36 9 10 9 C9.67 7.35 9.34 5.7 9 4 C8.071875 3.896875 7.14375 3.79375 6.1875 3.6875 C2.85034764 2.96772204 2.16813468 2.42857128 0 0 Z " fill="#0CE06D" transform="translate(403,196)"/>
<path d="M0 0 C1.32 0 2.64 0 4 0 C4.625 2.375 4.625 2.375 5 5 C3 7 3 7 0.5625 7.25 C-2 7 -2 7 -5 5 C-5 4.34 -5 3.68 -5 3 C-2.36 3.33 0.28 3.66 3 4 C3 3.01 3 2.02 3 1 C2.01 0.67 1.02 0.34 0 0 Z " fill="#00E45A" transform="translate(361,164)"/>
<path d="M0 0 C-2.36386846 3.25031913 -5.25696304 3.82258019 -8.96484375 4.765625 C-11.23267118 5.02679515 -12.83560469 4.67788667 -15 4 C-10.0268126 -0.08511822 -6.37494396 -0.12259508 0 0 Z " fill="#29E48A" transform="translate(326,256)"/>
<path d="M0 0 C0.33 0 0.66 0 1 0 C1.05834353 3.22909006 1.09371115 6.45804338 1.125 9.6875 C1.14175781 10.59951172 1.15851563 11.51152344 1.17578125 12.45117188 C1.20936169 17.06848227 1.23556185 20.81932331 -1 25 C-1.99 25 -2.98 25 -4 25 C-3.51917969 24.21367187 -3.03835938 23.42734375 -2.54296875 22.6171875 C-0.58564677 18.02863016 -0.44257045 14.06024469 -0.3125 9.125 C-0.27833984 8.24585938 -0.24417969 7.36671875 -0.20898438 6.4609375 C-0.1270686 4.30772295 -0.06184421 2.15388449 0 0 Z " fill="#2EE393" transform="translate(360,223)"/>
<path d="M0 0 C0.99 0.33 1.98 0.66 3 1 C-4.40384615 8.82692308 -4.40384615 8.82692308 -9.8125 9.1875 C-10.8953125 9.0946875 -10.8953125 9.0946875 -12 9 C-12 8.34 -12 7.68 -12 7 C-9.36 6.67 -6.72 6.34 -4 6 C-4 5.01 -4 4.02 -4 3 C-2.68 3 -1.36 3 0 3 C0 2.01 0 1.02 0 0 Z " fill="#17E082" transform="translate(343,238)"/>
<path d="M0 0 C0.99 0.33 1.98 0.66 3 1 C0.69 3.64 -1.62 6.28 -4 9 C-4.66 7.68 -5.32 6.36 -6 5 C-4.06745228 2.9754262 -2.36841312 1.57894208 0 0 Z " fill="#0BDF70" transform="translate(236,183)"/>
<path d="M0 0 C2 1 2 1 3.1171875 3.5703125 C4.10445072 7.40578644 4.22387631 10.95037124 4.125 14.875 C4.11597656 15.56335938 4.10695313 16.25171875 4.09765625 16.9609375 C4.07432513 18.64077838 4.03846326 20.32043746 4 22 C3.67 22 3.34 22 3 22 C2.95101563 21.18015625 2.90203125 20.3603125 2.8515625 19.515625 C2.77679688 18.43796875 2.70203125 17.3603125 2.625 16.25 C2.55539062 15.18265625 2.48578125 14.1153125 2.4140625 13.015625 C2.02127806 10.15496854 1.33675519 8.50102584 0 6 C-0.125 2.75 -0.125 2.75 0 0 Z " fill="#54E5A5" transform="translate(324,151)"/>
<path d="M0 0 C0.66 0.33 1.32 0.66 2 1 C-2.29 5.29 -6.58 9.58 -11 14 C-11.66 13.67 -12.32 13.34 -13 13 C-9.0580583 8.11950075 -4.88049925 3.9419417 0 0 Z " fill="#D9D9D9" transform="translate(336,319)"/>
<path d="M0 0 C0.99 0.66 1.98 1.32 3 2 C-2.445 2.495 -2.445 2.495 -8 3 C-8.33 3.99 -8.66 4.98 -9 6 C-10.65 6 -12.3 6 -14 6 C-9.05052775 0.92027848 -7.19057401 -0.37845126 0 0 Z " fill="#42E59E" transform="translate(362,159)"/>
<path d="M0 0 C0.33 0 0.66 0 1 0 C1.06058594 0.68707031 1.12117187 1.37414062 1.18359375 2.08203125 C1.26738281 2.98308594 1.35117188 3.88414062 1.4375 4.8125 C1.51871094 5.70582031 1.59992188 6.59914062 1.68359375 7.51953125 C1.93489767 10.12743559 1.93489767 10.12743559 3 13 C2.0625 15.1875 2.0625 15.1875 1 17 C0.01 15.35 -0.98 13.7 -2 12 C-1.34 12 -0.68 12 0 12 C-0.08378906 11.21753906 -0.16757813 10.43507812 -0.25390625 9.62890625 C-0.35574219 8.61699219 -0.45757812 7.60507813 -0.5625 6.5625 C-0.66691406 5.55316406 -0.77132812 4.54382813 -0.87890625 3.50390625 C-0.91886719 2.67761719 -0.95882812 1.85132813 -1 1 C-0.67 0.67 -0.34 0.34 0 0 Z " fill="#0AE26C" transform="translate(155,225)"/>
<path d="M0 0 C1.65 0 3.3 0 5 0 C2 4 -1 8 -4 12 C-3.67 9.36 -3.34 6.72 -3 4 C-2.01 4 -1.02 4 0 4 C0 2.68 0 1.36 0 0 Z " fill="#14DF79" transform="translate(220,197)"/>
<path d="M0 0 C1.93681161 -0.08107583 3.8745934 -0.13922475 5.8125 -0.1875 C6.89144531 -0.22230469 7.97039062 -0.25710937 9.08203125 -0.29296875 C12 0 12 0 13.88671875 1.51171875 C14.25410156 2.00285156 14.62148438 2.49398437 15 3 C13.06318839 3.08107583 11.1254066 3.13922475 9.1875 3.1875 C8.10855469 3.22230469 7.02960938 3.25710937 5.91796875 3.29296875 C3 3 3 3 1.11328125 1.48828125 C0.56220703 0.75158203 0.56220703 0.75158203 0 0 Z " fill="#00E15E" transform="translate(391,196)"/>
<path d="M0 0 C0.33 0.66 0.66 1.32 1 2 C3.11327425 2.90725434 3.11327425 2.90725434 5.5625 3.625 C6.38878906 3.88539063 7.21507813 4.14578125 8.06640625 4.4140625 C9.02353516 4.70410156 9.02353516 4.70410156 10 5 C10 4.34 10 3.68 10 3 C10.66 3 11.32 3 12 3 C12 4.32 12 5.64 12 7 C6.06 6.01 6.06 6.01 0 5 C0 3.35 0 1.7 0 0 Z " fill="#555555" transform="translate(108,183)"/>
<path d="M0 0 C1.31677734 -0.02126953 1.31677734 -0.02126953 2.66015625 -0.04296875 C4.9375 0.1875 4.9375 0.1875 6.9375 2.1875 C5.00153108 2.40961116 3.06360672 2.61472992 1.125 2.8125 C-0.49341797 2.98652344 -0.49341797 2.98652344 -2.14453125 3.1640625 C-5.0625 3.1875 -5.0625 3.1875 -8.0625 1.1875 C-5.12020079 0.2067336 -3.0716216 0.02261872 0 0 Z " fill="#01E064" transform="translate(207.0625,130.8125)"/>
<path d="M0 0 C1.32 0 2.64 0 4 0 C4 0.66 4 1.32 4 2 C2.68 2 1.36 2 0 2 C0 2.66 0 3.32 0 4 C-2.31 4.33 -4.62 4.66 -7 5 C-7.33 4.01 -7.66 3.02 -8 2 C-6.865625 1.855625 -5.73125 1.71125 -4.5625 1.5625 C-1.19222799 1.38828522 -1.19222799 1.38828522 0 0 Z " fill="#00E43A" transform="translate(391,254)"/>
<path d="M0 0 C0.99 0 1.98 0 3 0 C2.67 1.32 2.34 2.64 2 4 C3.98 4 5.96 4 8 4 C8 4.33 8 4.66 8 5 C3.71 5 -0.58 5 -5 5 C-5.33 4.34 -5.66 3.68 -6 3 C-4.02 3 -2.04 3 0 3 C0 2.01 0 1.02 0 0 Z " fill="#26E282" transform="translate(174,289)"/>
<path d="M0 0 C1.98 0 3.96 0 6 0 C6 0.66 6 1.32 6 2 C7.32 2.33 8.64 2.66 10 3 C10 3.33 10 3.66 10 4 C7.03 4 4.06 4 1 4 C0.67 2.68 0.34 1.36 0 0 Z " fill="#00E33E" transform="translate(321,243)"/>
<path d="M0 0 C0.99 0 1.98 0 3 0 C3.33 0.99 3.66 1.98 4 3 C4.99 3.66 5.98 4.32 7 5 C7 5.99 7 6.98 7 8 C5.68 7.67 4.36 7.34 3 7 C3 6.34 3 5.68 3 5 C2.01 4.67 1.02 4.34 0 4 C0 2.68 0 1.36 0 0 Z " fill="#00E439" transform="translate(368,210)"/>
<path d="M0 0 C0.33 0 0.66 0 1 0 C1.33 4.62 1.66 9.24 2 14 C1.01 14 0.02 14 -1 14 C-1.02685938 11.85423363 -1.04633088 9.70837355 -1.0625 7.5625 C-1.07410156 6.36753906 -1.08570313 5.17257813 -1.09765625 3.94140625 C-1 1 -1 1 0 0 Z " fill="#09E174" transform="translate(215,209)"/>
<path d="M0 0 C2.31 0 4.62 0 7 0 C7 1.32 7 2.64 7 4 C7.66 4 8.32 4 9 4 C8.67 4.66 8.34 5.32 8 6 C5.69 5.34 3.38 4.68 1 4 C0.67 2.68 0.34 1.36 0 0 Z " fill="#01E25A" transform="translate(106,196)"/>
<path d="M0 0 C0.99 0.495 0.99 0.495 2 1 C2 1.99 2 2.98 2 4 C2.66 4 3.32 4 4 4 C4 4.99 4 5.98 4 7 C4.66 7 5.32 7 6 7 C5.67 7.99 5.34 8.98 5 10 C4.34 10 3.68 10 3 10 C3 9.34 3 8.68 3 8 C2.01 7.67 1.02 7.34 0 7 C0 4.69 0 2.38 0 0 Z " fill="#00E43A" transform="translate(228,141)"/>
<path d="M0 0 C-0.825 0.433125 -1.65 0.86625 -2.5 1.3125 C-3.7375 2.1478125 -3.7375 2.1478125 -5 3 C-5 3.99 -5 4.98 -5 6 C-7.97 5.505 -7.97 5.505 -11 5 C-4.74206349 -1.42261905 -4.74206349 -1.42261905 0 0 Z " fill="#29E385" transform="translate(321,204)"/>
<path d="M0 0 C-1.59092052 4.13639336 -4.60474918 7.23213248 -8 10 C-8.66 10 -9.32 10 -10 10 C-8.50006099 6.10015857 -4.53875449 0 0 0 Z " fill="#D0F9EA" transform="translate(229,195)"/>
<path d="M0 0 C0.66 0.33 1.32 0.66 2 1 C1.67 1.33 1.34 1.66 1 2 C0.60851239 3.51165654 0.26027543 5.03469632 -0.0625 6.5625 C-0.23910156 7.38878906 -0.41570312 8.21507812 -0.59765625 9.06640625 C-0.73042969 9.70449219 -0.86320313 10.34257812 -1 11 C-1.33 11 -1.66 11 -2 11 C-2 9.35 -2 7.7 -2 6 C-2.99 6 -3.98 6 -5 6 C-3.86695008 2.60085025 -2.87481525 1.94745549 0 0 Z " fill="#1CE37C" transform="translate(187,136)"/>
<path d="M0 0 C1.98 0 3.96 0 6 0 C6.33 0.99 6.66 1.98 7 3 C7.99 3.33 8.98 3.66 10 4 C10 4.66 10 5.32 10 6 C5.96825194 5.72510809 4.43105369 5.46508424 1.625 2.4375 C0.820625 1.2309375 0.820625 1.2309375 0 0 Z " fill="#2BE482" transform="translate(202,263)"/>
<path d="M0 0 C2.475 0.495 2.475 0.495 5 1 C5 2.98 5 4.96 5 7 C4.01 7.33 3.02 7.66 2 8 C0.23537317 4.91190305 0 3.76687864 0 0 Z " fill="#00E336" transform="translate(140,161)"/>
<path d="M0 0 C0 3.74016583 -0.9341591 4.45276193 -3.375 7.1875 C-4.00148437 7.90292969 -4.62796875 8.61835937 -5.2734375 9.35546875 C-7 11 -7 11 -9 11 C-7.59155282 7.78475695 -5.89655214 5.67816132 -3.375 3.25 C-2.74335938 2.63640625 -2.11171875 2.0228125 -1.4609375 1.390625 C-0.73777344 0.70226562 -0.73777344 0.70226562 0 0 Z " fill="#302F30" transform="translate(150,102)"/>
<path d="M0 0 C0.66 0 1.32 0 2 0 C2 0.99 2 1.98 2 3 C3.65 3 5.3 3 7 3 C6.67 4.32 6.34 5.64 6 7 C6.66 7 7.32 7 8 7 C8 7.66 8 8.32 8 9 C4.20620942 7.50958227 2.31656242 5.30937488 0 2 C0 1.34 0 0.68 0 0 Z " fill="#1EE180" transform="translate(160,283)"/>
<path d="M0 0 C0.66 0 1.32 0 2 0 C2.33 1.32 2.66 2.64 3 4 C2.01 4 1.02 4 0 4 C-0.33 5.65 -0.66 7.3 -1 9 C-3 7 -3 7 -3.125 4.375 C-3.08375 3.59125 -3.0425 2.8075 -3 2 C-2.01 2 -1.02 2 0 2 C0 1.34 0 0.68 0 0 Z " fill="#00E331" transform="translate(203,240)"/>
<path d="M0 0 C1.76462683 3.08809695 2 4.23312136 2 8 C-0.97 7.505 -0.97 7.505 -4 7 C-2.92598892 4.08482708 -2.22189824 2.22189824 0 0 Z " fill="#06E168" transform="translate(367,210)"/>
<path d="M0 0 C0.66 0 1.32 0 2 0 C2.3125 2.25 2.3125 2.25 2 5 C-0.5 7.3125 -0.5 7.3125 -3 9 C-3.33 7.68 -3.66 6.36 -4 5 C-3.01 4.34 -2.02 3.68 -1 3 C-0.67 2.01 -0.34 1.02 0 0 Z " fill="#00E45D" transform="translate(338,210)"/>
<path d="M0 0 C0.99 0.33 1.98 0.66 3 1 C-1.90924297 4.92739438 -4.73920552 5.43177893 -11 5 C-11 4.67 -11 4.34 -11 4 C-9.35 4 -7.7 4 -6 4 C-5.67 3.01 -5.34 2.02 -5 1 C-3.35 1.33 -1.7 1.66 0 2 C0 1.34 0 0.68 0 0 Z " fill="#2EE38E" transform="translate(147,182)"/>
<path d="M0 0 C0.99 0 1.98 0 3 0 C3.33 0.66 3.66 1.32 4 2 C5.32 2 6.64 2 8 2 C7.67 3.32 7.34 4.64 7 6 C6.34 6 5.68 6 5 6 C5 5.34 5 4.68 5 4 C3.35 4 1.7 4 0 4 C0 2.68 0 1.36 0 0 Z " fill="#00E35D" transform="translate(216,133)"/>
<path d="M0 0 C5.28497409 -0.44041451 5.28497409 -0.44041451 8 0 C10.5 2.5 10.5 2.5 12 5 C7.43545749 4.45660208 4.0271824 3.20536179 0 1 C0 0.67 0 0.34 0 0 Z " fill="#32E684" transform="translate(376,260)"/>
<path d="M0 0 C-0.66 0 -1.32 0 -2 0 C-2 0.66 -2 1.32 -2 2 C-1.01 2.33 -0.02 2.66 1 3 C-2.00833096 4.50416548 -4.34961578 3.60839737 -7.625 3.0625 C-8.81351562 2.86785156 -10.00203125 2.67320312 -11.2265625 2.47265625 C-12.59941406 2.23869141 -12.59941406 2.23869141 -14 2 C-14 1.67 -14 1.34 -14 1 C-12.23103898 0.63659714 -10.45973374 0.28459117 -8.6875 -0.0625 C-7.70136719 -0.25972656 -6.71523438 -0.45695313 -5.69921875 -0.66015625 C-3 -1 -3 -1 0 0 Z " fill="#38E68C" transform="translate(375,256)"/>
<path d="M0 0 C0.66 0 1.32 0 2 0 C1.34 4.29 0.68 8.58 0 13 C-0.33 13 -0.66 13 -1 13 C-1.02686553 11.02090602 -1.04633375 9.04171029 -1.0625 7.0625 C-1.07410156 5.96035156 -1.08570313 4.85820312 -1.09765625 3.72265625 C-1 1 -1 1 0 0 Z " fill="#0EE270" transform="translate(428,234)"/>
<path d="M0 0 C1.33897583 0.95043374 2.67105427 1.91059147 4 2.875 C5.11375 3.67550781 5.11375 3.67550781 6.25 4.4921875 C6.8275 4.98976562 7.405 5.48734375 8 6 C8 6.66 8 7.32 8 8 C7.01 8 6.02 8 5 8 C5 7.34 5 6.68 5 6 C3.35 5.67 1.7 5.34 0 5 C0 3.35 0 1.7 0 0 Z " fill="#14E273" transform="translate(224,233)"/>
<path d="M0 0 C2.18325915 1.74545521 2.93939398 2.59791488 3.36328125 5.41015625 C3.34652344 6.28542969 3.32976562 7.16070312 3.3125 8.0625 C3.30863281 8.94035156 3.30476562 9.81820312 3.30078125 10.72265625 C3 13 3 13 1 15 C1.020625 14.01 1.04125 13.02 1.0625 12 C1.07081428 7.93431926 0.56468467 4.02337824 0 0 Z " fill="#28DF91" transform="translate(151,165)"/>
<path d="M0 0 C7.38461538 0.49230769 7.38461538 0.49230769 10.5 3.0625 C10.995 3.701875 11.49 4.34125 12 5 C11.01 5.495 11.01 5.495 10 6 C10 5.34 10 4.68 10 4 C7.03 3.67 4.06 3.34 1 3 C0.67 2.01 0.34 1.02 0 0 Z " fill="#38E496" transform="translate(299,131)"/>
<path d="M0 0 C1.6415049 3.2830098 0.51888624 6.42545033 0 10 C-0.33 10 -0.66 10 -1 10 C-1.33 11.65 -1.66 13.3 -2 15 C-2.33 15 -2.66 15 -3 15 C-3.35050464 9.158256 -3.16727335 5.1468192 0 0 Z " fill="#36E596" transform="translate(200,240)"/>
<path d="M0 0 C0.99 0.33 1.98 0.66 3 1 C-2 7.57142857 -2 7.57142857 -7 9 C-6.67 8.01 -6.34 7.02 -6 6 C-5.01 6 -4.02 6 -3 6 C-3 5.01 -3 4.02 -3 3 C-2.01 3 -1.02 3 0 3 C0 2.01 0 1.02 0 0 Z " fill="#19DF80" transform="translate(189,237)"/>
<path d="M0 0 C0.33 0.66 0.66 1.32 1 2 C0.319375 3.051875 0.319375 3.051875 -0.375 4.125 C-2.48234275 7.85337564 -2.64003226 10.7523807 -3 15 C-3.33 15 -3.66 15 -4 15 C-4.63019694 5.98468271 -4.63019694 5.98468271 -2 1.875 C-1.34 1.25625 -0.68 0.6375 0 0 Z " fill="#3CE59A" transform="translate(131,163)"/>
<path d="M0 0 C4.3890815 0.51035831 7.33708062 1.52214277 11 4 C9.4375 4.75 9.4375 4.75 7 5 C4.49713591 3.86915563 2.32992278 2.47860484 0 1 C0 0.67 0 0.34 0 0 Z " fill="#2AE18A" transform="translate(310,289)"/>
<path d="M0 0 C0.66 0.33 1.32 0.66 2 1 C2.33 1.99 2.66 2.98 3 4 C5.01508358 4.73323796 5.01508358 4.73323796 7 5 C7 5.99 7 6.98 7 8 C3.20411134 7.45773019 1.52788007 5.79872437 -1 3 C-0.67 2.01 -0.34 1.02 0 0 Z " fill="#12E076" transform="translate(77,250)"/>
<path d="M0 0 C0.66 0.66 1.32 1.32 2 2 C1.625 5.125 1.625 5.125 1 8 C-0.32 8 -1.64 8 -3 8 C-3 6.68 -3 5.36 -3 4 C-2.01 4 -1.02 4 0 4 C0 2.68 0 1.36 0 0 Z " fill="#09E16D" transform="translate(232,241)"/>
<path d="M0 0 C0.99 0 1.98 0 3 0 C1.61990379 3.33523252 0.15049348 5.18607951 -3 7 C-3.99 6.67 -4.98 6.34 -6 6 C-4.6875 4.5 -4.6875 4.5 -3 3 C-2.01 3 -1.02 3 0 3 C0 2.01 0 1.02 0 0 Z " fill="#13E079" transform="translate(188,286)"/>
<path d="M0 0 C-1.32 0.33 -2.64 0.66 -4 1 C-4 1.66 -4 2.32 -4 3 C-6.31 3 -8.62 3 -11 3 C-11 2.34 -11 1.68 -11 1 C-3.57142857 -1.42857143 -3.57142857 -1.42857143 0 0 Z " fill="#11E276" transform="translate(174,258)"/>
<path d="M0 0 C2.38672669 2.96283313 4.7353371 5.94270509 7 9 C5.35 9 3.7 9 2 9 C2 7.35 2 5.7 2 4 C1.34 4 0.68 4 0 4 C0 2.68 0 1.36 0 0 Z " fill="#27E281" transform="translate(217,224)"/>
<path d="M0 0 C5.57142857 5.14285714 5.57142857 5.14285714 6 9 C5.01 8.67 4.02 8.34 3 8 C3 7.01 3 6.02 3 5 C2.01 5 1.02 5 0 5 C0 3.35 0 1.7 0 0 Z " fill="#35E38A" transform="translate(344,209)"/>
<path d="M0 0 C0.99 0.33 1.98 0.66 3 1 C2.34 2.98 1.68 4.96 1 7 C1.66 7 2.32 7 3 7 C2.67 7.99 2.34 8.98 2 10 C0.5 8.875 0.5 8.875 -1 7 C-1.25 3.875 -1.25 3.875 -1 1 C-0.67 0.67 -0.34 0.34 0 0 Z " fill="#00E33A" transform="translate(155,211)"/>
<path d="M0 0 C1.32 0 2.64 0 4 0 C3.67 0.99 3.34 1.98 3 3 C2.34 3 1.68 3 1 3 C0.67 4.32 0.34 5.64 0 7 C-0.66 7 -1.32 7 -2 7 C-2 5.35 -2 3.7 -2 2 C-1.34 2 -0.68 2 0 2 C0 1.34 0 0.68 0 0 Z " fill="#00E35E" transform="translate(374,205)"/>
<path d="M0 0 C2.0625 1.75 2.0625 1.75 4 4 C3.75 6.25 3.75 6.25 3 8 C0.9375 6.25 0.9375 6.25 -1 4 C-0.75 1.75 -0.75 1.75 0 0 Z " fill="#17E26B" transform="translate(190,262)"/>
<path d="M0 0 C1 2 1 2 0.125 4.6875 C-0.24625 5.780625 -0.6175 6.87375 -1 8 C-1.37531446 10.32694964 -1.71917202 12.65976685 -2 15 C-2.33 15 -2.66 15 -3 15 C-3.35050464 9.158256 -3.16727335 5.1468192 0 0 Z " fill="#77EBC0" transform="translate(306,213)"/>
<path d="M0 0 C0.33 1.32 0.66 2.64 1 4 C0.34 4 -0.32 4 -1 4 C-1 4.99 -1 5.98 -1 7 C-1.99 7 -2.98 7 -4 7 C-3.6875 4.625 -3.6875 4.625 -3 2 C-2.01 1.34 -1.02 0.68 0 0 Z " fill="#00E445" transform="translate(292,204)"/>
<path d="M0 0 C1.65 0 3.3 0 5 0 C5.33 2.31 5.66 4.62 6 7 C1.125 2.25 1.125 2.25 0 0 Z " fill="#1CE181" transform="translate(262,185)"/>
<path d="M0 0 C0.33 0 0.66 0 1 0 C1 1.65 1 3.3 1 5 C2.32 5 3.64 5 5 5 C5.33 6.32 5.66 7.64 6 9 C3.5625 8.625 3.5625 8.625 1 8 C-0.35439668 5.29120665 -0.06501451 2.99066732 0 0 Z " fill="#06E162" transform="translate(260,176)"/>
<path d="M0 0 C0.66 0.33 1.32 0.66 2 1 C-0.33333333 3.33333333 -2.66666667 5.66666667 -5 8 C-5.99 7.67 -6.98 7.34 -8 7 C-5.36 4.69 -2.72 2.38 0 0 Z " fill="#333333" transform="translate(161,92)"/>
<path d="M0 0 C0.33 0.66 0.66 1.32 1 2 C-0.98 4.97 -0.98 4.97 -3 8 C-4.32 7.67 -5.64 7.34 -7 7 C-4.69 4.69 -2.38 2.38 0 0 Z " fill="#323232" transform="translate(345,296)"/>
<path d="M0 0 C2.58926331 2.58926331 2.37398043 4.02705279 2.625 7.625 C2.69976562 8.62789062 2.77453125 9.63078125 2.8515625 10.6640625 C2.90054687 11.43492187 2.94953125 12.20578125 3 13 C2.67 12.01 2.34 11.02 2 10 C1.34 10 0.68 10 0 10 C0 6.7 0 3.4 0 0 Z " fill="#17E179" transform="translate(427,214)"/>
<path d="M0 0 C-3.96 1.98 -3.96 1.98 -8 4 C-8 2.68 -8 1.36 -8 0 C-4.63458162 -1.08174162 -3.70152678 -0.92538169 0 0 Z " fill="#16E17D" transform="translate(316,193)"/>
<path d="M0 0 C0.33 0.99 0.66 1.98 1 3 C0.01 3.33 -0.98 3.66 -2 4 C-1.938125 4.928125 -1.87625 5.85625 -1.8125 6.8125 C-2 10 -2 10 -3.51171875 11.69921875 C-4.00285156 12.12847656 -4.49398437 12.55773437 -5 13 C-4.74379316 11.3934324 -4.46944129 9.7897517 -4.1875 8.1875 C-4.03667969 7.29417969 -3.88585937 6.40085938 -3.73046875 5.48046875 C-2.94604607 2.81678744 -2.11372201 1.74309678 0 0 Z " fill="#16E176" transform="translate(181,142)"/>
<path d="M0 0 C0.66 0 1.32 0 2 0 C2 1.98 2 3.96 2 6 C1.01 6.33 0.02 6.66 -1 7 C-1.04254356 5.00045254 -1.04080783 2.99958364 -1 1 C-0.67 0.67 -0.34 0.34 0 0 Z " fill="#00E434" transform="translate(311,273)"/>
<path d="M0 0 C1.98 0.66 3.96 1.32 6 2 C6 2.66 6 3.32 6 4 C6.66 4 7.32 4 8 4 C8 4.66 8 5.32 8 6 C4.08597051 4.73058503 2.20927127 3.48832306 0 0 Z " fill="#21DF89" transform="translate(270,263)"/>
<path d="M0 0 C1.65 0.33 3.3 0.66 5 1 C4.01 1.495 4.01 1.495 3 2 C3 2.66 3 3.32 3 4 C1.35 4 -0.3 4 -2 4 C-2 3.34 -2 2.68 -2 2 C-1.34 2 -0.68 2 0 2 C0 1.34 0 0.68 0 0 Z " fill="#03E160" transform="translate(94,260)"/>
<path d="M0 0 C0.33 0.66 0.66 1.32 1 2 C1.66 2 2.32 2 3 2 C2.67 3.32 2.34 4.64 2 6 C0.68 5.67 -0.64 5.34 -2 5 C-1.125 1.125 -1.125 1.125 0 0 Z " fill="#00E333" transform="translate(292,238)"/>
<path d="M0 0 C0 2.62113708 -0.31292445 4.50935112 -1 7 C-2.32 7 -3.64 7 -5 7 C-3.70700306 4.11562221 -2.34058637 2.12780579 0 0 Z " fill="#22E185" transform="translate(268,139)"/>
<path d="M0 0 C-0.66 1.32 -1.32 2.64 -2 4 C-2.66 4 -3.32 4 -4 4 C-3.67 5.98 -3.34 7.96 -3 10 C-3.66 10 -4.32 10 -5 10 C-5.3669579 3.51707705 -5.3669579 3.51707705 -3.625 1.0625 C-2 0 -2 0 0 0 Z " fill="#595959" transform="translate(209,421)"/>
<path d="M0 0 C1.98 0 3.96 0 6 0 C6 0.99 6 1.98 6 3 C4.1875 3.625 4.1875 3.625 2 4 C1.01 3.34 0.02 2.68 -1 2 C-0.67 1.34 -0.34 0.68 0 0 Z " fill="#00E439" transform="translate(185,283)"/>
<path d="M0 0 C1.98 0.66 3.96 1.32 6 2 C6.33 4.31 6.66 6.62 7 9 C6.38125 8.1646875 6.38125 8.1646875 5.75 7.3125 C3.87743601 4.83804044 1.94660656 2.4164771 0 0 Z " fill="#27E18C" transform="translate(150,263)"/>
<path d="M0 0 C0.99 0.33 1.98 0.66 3 1 C1.75023244 4.65316671 1.32901247 5.78065836 -2 8 C-1.33333333 5.33333333 -0.66666667 2.66666667 0 0 Z " fill="#19E27B" transform="translate(299,255)"/>
<path d="M0 0 C0.99 0.33 1.98 0.66 3 1 C1.35830472 3.02054804 -0.30911778 5.02043058 -2 7 C-2.33 7 -2.66 7 -3 7 C-3 5.02 -3 3.04 -3 1 C-2.67 1.66 -2.34 2.32 -2 3 C-1.34 3 -0.68 3 0 3 C0 2.01 0 1.02 0 0 Z " fill="#16E07B" transform="translate(319,185)"/>
<path d="M0 0 C0.8125 1.6875 0.8125 1.6875 1 4 C-1.4375 6.75 -1.4375 6.75 -4 9 C-2.94124926 5.59687262 -1.99097846 2.98646769 0 0 Z " fill="#2CE293" transform="translate(262,146)"/>
<path d="M0 0 C1.32 0 2.64 0 4 0 C4 1.98 4 3.96 4 6 C2.62437146 4.71034824 1.29233607 3.37310707 0 2 C0 1.34 0 0.68 0 0 Z " fill="#21E283" transform="translate(306,283)"/>
<path d="M0 0 C0.33 0.99 0.66 1.98 1 3 C-0.75 5.0625 -0.75 5.0625 -3 7 C-5.25 6.75 -5.25 6.75 -7 6 C-6.21625 5.566875 -5.4325 5.13375 -4.625 4.6875 C-1.78301625 3.10779753 -1.78301625 3.10779753 0 0 Z " fill="#30E197" transform="translate(355,249)"/>
<path d="M0 0 C1.98 0 3.96 0 6 0 C5.34 1.32 4.68 2.64 4 4 C2.68 3.34 1.36 2.68 0 2 C0 1.34 0 0.68 0 0 Z " fill="#00E43A" transform="translate(276,252)"/>
<path d="M0 0 C1.98 0 3.96 0 6 0 C6 1.98 6 3.96 6 6 C3.97945196 4.35830472 1.97956942 2.69088222 0 1 C0 0.67 0 0.34 0 0 Z " fill="#1DE27B" transform="translate(275,197)"/>
<path d="M0 0 C1.32 0 2.64 0 4 0 C3 3 3 3 0.9375 4.1875 C0.298125 4.455625 -0.34125 4.72375 -1 5 C-1 4.34 -1 3.68 -1 3 C-1.66 2.67 -2.32 2.34 -3 2 C-2.01 2 -1.02 2 0 2 C0 1.34 0 0.68 0 0 Z " fill="#00E45B" transform="translate(202,193)"/>
<path d="M0 0 C1.32 0 2.64 0 4 0 C3.67 1.32 3.34 2.64 3 4 C1.68 3.67 0.36 3.34 -1 3 C-0.67 2.01 -0.34 1.02 0 0 Z " fill="#00E45C" transform="translate(293,192)"/>
<path d="M0 0 C0.33 1.32 0.66 2.64 1 4 C1.99 4 2.98 4 4 4 C4 4.99 4 5.98 4 7 C2.35 7 0.7 7 -1 7 C-0.67 4.69 -0.34 2.38 0 0 Z " fill="#00E35A" transform="translate(179,146)"/>
<path d="M0 0 C1.98 1.65 3.96 3.3 6 5 C5.67 5.66 5.34 6.32 5 7 C3.0625 6.3125 3.0625 6.3125 1 5 C0.25 2.375 0.25 2.375 0 0 Z " fill="#22E080" transform="translate(316,140)"/>
</svg>
