<?xml version="1.0" encoding="UTF-8"?>
<svg version="1.1" xmlns="http://www.w3.org/2000/svg" width="160" height="160">
<path d="M0 0 C52.8 0 105.6 0 160 0 C160 52.8 160 105.6 160 160 C107.2 160 54.4 160 0 160 C0 107.2 0 54.4 0 0 Z " fill="#000000" transform="translate(0,0)"/>
<path d="M0 0 C5.59771076 3.94757127 10.36657748 9.06577575 12.3984375 15.69140625 C12.76953125 18.890625 12.76953125 18.890625 12.8359375 22.37890625 C12.89587891 24.08626953 12.89587891 24.08626953 12.95703125 25.828125 C11.42225317 36.44277896 4.43744887 43.41563144 -2.90625 50.6953125 C-3.91432021 51.70930565 -4.92172387 52.72396185 -5.92849731 53.73924255 C-8.02669322 55.84923739 -10.13377154 57.94981804 -12.24755859 60.04418945 C-14.94857943 62.72221635 -17.62379715 65.42447795 -20.29273796 68.13443089 C-22.3616722 70.22897649 -24.44453501 72.30921891 -26.5317421 74.38554192 C-27.52420617 75.3765252 -28.51213686 76.3720714 -29.49526596 77.37231636 C-30.87019744 78.76729594 -32.26651914 80.14109348 -33.66357422 81.51391602 C-34.45013397 82.29871841 -35.23669373 83.08352081 -36.04708862 83.8921051 C-39.22076961 86.12755871 -41.77420191 86.40488947 -45.6015625 86.69140625 C-47.48536014 84.5721339 -48.52633899 83.17934594 -48.96298218 80.3470459 C-48.46425653 76.6825094 -46.94973046 75.45559574 -44.31884766 72.88867188 C-43.3843277 71.96421265 -42.44980774 71.03975342 -41.48696899 70.08728027 C-40.45488923 69.09070278 -39.42277369 68.09416235 -38.390625 67.09765625 C-37.34036437 66.0643489 -36.29142147 65.02970064 -35.2437439 63.99377441 C-32.48307799 61.26919136 -29.70907549 58.55864701 -26.9307251 55.85211182 C-22.48829359 51.52296462 -18.05990308 47.17971993 -13.64387131 42.82365417 C-12.10061691 41.30725674 -10.54785181 39.80110903 -8.99404907 38.29553223 C-8.05322479 37.371073 -7.11240051 36.44661377 -6.14306641 35.49414062 C-5.31255768 34.68537476 -4.48204895 33.87660889 -3.62637329 33.04333496 C-1.04021877 30.03937474 0.31143935 27.38497014 0.515625 23.41015625 C-0.0315134 18.3976625 -0.78448484 15.29036519 -4.6015625 11.69140625 C-7.45721564 9.99717178 -9.66211885 9.37455438 -12.9765625 9.31640625 C-13.70617187 9.28804687 -14.43578125 9.2596875 -15.1875 9.23046875 C-20.86438583 10.31440488 -24.94104689 14.82034122 -28.7890625 18.859375 C-29.74436501 19.84481483 -30.70010729 20.8298285 -31.65625 21.81445312 C-33.13596439 23.3500383 -34.61136437 24.88923774 -36.07910156 26.4362793 C-37.51286208 27.94277716 -38.96204205 29.43299813 -40.4140625 30.921875 C-41.26613281 31.81285889 -42.11820313 32.70384277 -42.99609375 33.62182617 C-45.96994465 35.98402015 -47.84067528 36.50369064 -51.6015625 36.69140625 C-53.4765625 35.69140625 -53.4765625 35.69140625 -54.6015625 33.69140625 C-55.11483373 29.34421363 -55.08319357 27.36186303 -52.49365234 23.75708008 C-51.53479237 22.78589642 -50.5564088 21.83372113 -49.5625 20.8984375 C-48.78478745 20.12846687 -48.78478745 20.12846687 -47.99136353 19.34294128 C-46.89473785 18.26340767 -45.78980721 17.19225361 -44.67724609 16.12915039 C-42.98718645 14.51405894 -41.32209569 12.87638775 -39.66015625 11.23242188 C-38.58731203 10.18218779 -37.51313448 9.13331366 -36.4375 8.0859375 C-35.94349701 7.60357132 -35.44949402 7.12120514 -34.94052124 6.6242218 C-24.84803693 -2.99642452 -12.69921175 -7.03063616 0 0 Z " fill="#0582D1" transform="translate(110.6015625,22.30859375)"/>
<path d="M0 0 C3.31736755 0.87190247 3.31736755 0.87190247 5.31736755 2.87190247 C5.81736755 5.05940247 5.81736755 5.05940247 5.31736755 7.87190247 C2.25696148 12.34480364 -1.8214309 16.10049631 -5.68263245 19.87190247 C-7.18400419 21.37052947 -8.6838716 22.87066433 -10.18263245 24.37190247 C-11.68263245 25.87190247 -13.18263245 27.37190247 -14.68263245 28.87190247 C-15.43633118 29.63285217 -16.19002991 30.39380188 -16.96656799 31.17781067 C-19.24618477 33.4389856 -21.56051708 35.65112023 -23.90829468 37.84106445 C-26.06198009 39.85939906 -28.18794656 41.9060427 -30.31373596 43.95368958 C-31.43491506 45.02440177 -32.56487755 46.08599123 -33.7033844 47.13825989 C-40.41920101 53.03666572 -40.41920101 53.03666572 -44.48976135 60.72981262 C-44.61404603 65.9013836 -43.33992718 69.42303022 -40.16700745 73.49690247 C-37.17346008 76.26987266 -34.3451501 77.17606882 -30.30763245 77.24690247 C-29.57802307 77.27526184 -28.8484137 77.30362122 -28.09669495 77.33283997 C-22.30190336 76.22639109 -18.16823916 71.56153097 -14.2412262 67.45002747 C-13.23578901 66.41446114 -12.22991689 65.37931695 -11.22364807 64.34455872 C-9.66269696 62.72763921 -8.10603447 61.10708451 -6.55690002 59.47883606 C-5.04611087 57.89556135 -3.52009124 56.32832648 -1.9912262 54.76252747 C-1.09202454 53.82441223 -0.19282288 52.886297 0.73362732 51.91975403 C3.31736755 49.87190247 3.31736755 49.87190247 6.03587341 49.4959259 C8.31736755 49.87190247 8.31736755 49.87190247 10.12986755 50.99690247 C11.92016756 53.82369195 11.74018512 55.56373052 11.31736755 58.87190247 C9.54251721 61.25705156 7.89357312 63.1616782 5.7978363 65.22346497 C5.2246315 65.8047818 4.6514267 66.38609863 4.06085205 66.98503113 C2.84336444 68.21097316 1.6181802 69.42931281 0.38597107 70.64045715 C-1.47372861 72.4757792 -3.29641194 74.34276595 -5.11817932 76.21565247 C-12.95622528 84.11429792 -19.79596153 89.35831276 -31.24513245 90.43440247 C-39.00455852 89.99100669 -44.9986898 85.98393962 -50.18263245 80.43440247 C-54.75903655 75.19216908 -55.9959749 69.997122 -56.18263245 63.12190247 C-56.23419495 61.99268372 -56.28575745 60.86346497 -56.33888245 59.70002747 C-54.57057944 49.38492662 -46.38802832 41.92696012 -39.2802887 34.79768372 C-38.27401969 33.77852793 -37.26803852 32.75908787 -36.2623291 31.73937988 C-34.16895351 29.62224877 -32.06767532 27.5133464 -29.9611969 25.40925598 C-27.26619906 22.71466773 -24.59994654 19.9934056 -21.93964481 17.26461506 C-19.87803392 15.15855026 -17.79851724 13.07089792 -15.71351433 10.98801231 C-14.72189346 9.99168239 -13.73672658 8.98888421 -12.75836372 7.97953224 C-11.39297485 6.57493091 -9.99937649 5.19791928 -8.60475159 3.82234192 C-7.42943626 2.63847649 -7.42943626 2.63847649 -6.2303772 1.43069458 C-3.68263245 -0.12809753 -3.68263245 -0.12809753 0 0 Z " fill="#0484D6" transform="translate(86.68263244628906,49.12809753417969)"/>
<path d="M0 0 C3.49406769 1.66762322 4.82670681 2.74006022 7 6 C7.50256748 10.62362084 6.86230692 13.3198911 4 17 C0.79062591 19.32402951 -2.11506021 19.47570691 -6 19 C-8.8125 17.5625 -8.8125 17.5625 -11 15 C-11.98006353 11.94584852 -12.30751206 9.19470863 -12 6 C-8.75865414 0.63501376 -6.14547559 -0.48199809 0 0 Z " fill="#0286DB" transform="translate(112,81)"/>
<path d="M0 0 C3.07546286 2.62539513 3.88481895 4.05935472 4.375 8.0625 C3.8363467 12.28195083 3.13726487 14.11546066 -0.25 16.75 C-3.55666609 18.25303004 -5.40839515 18.59860081 -9 18 C-12.56719805 14.98769943 -14.79134449 12.87789961 -15.3125 8.1875 C-14.92835642 4.2692355 -13.70743683 2.78706733 -11 0 C-7.49055854 -1.75472073 -3.71048867 -0.95563207 0 0 Z " fill="#0681CE" transform="translate(50,59)"/>
<path d="M0 0 C3.22265625 0.99609375 3.22265625 0.99609375 5.22265625 2.99609375 C5.72265625 5.18359375 5.72265625 5.18359375 5.22265625 7.99609375 C2.16225018 12.46899493 -1.9161422 16.22468759 -5.77734375 19.99609375 C-7.38286586 21.59890383 -8.98692985 23.2031753 -10.58984375 24.80859375 C-11.98567708 26.20442708 -13.38151042 27.60026042 -14.77734375 28.99609375 C-15.515625 27.3515625 -15.515625 27.3515625 -15.77734375 24.99609375 C-14.1953125 22.234375 -14.1953125 22.234375 -11.96484375 19.30859375 C-11.23652344 18.33535156 -10.50820312 17.36210938 -9.7578125 16.359375 C-7.77734375 13.99609375 -7.77734375 13.99609375 -5.77734375 12.99609375 C-9.24882217 12.24652218 -9.24882217 12.24652218 -12.77734375 11.99609375 C-13.76734375 11.99609375 -14.75734375 11.99609375 -15.77734375 11.99609375 C-13.94657166 9.9488757 -12.092726 7.93681736 -10.21484375 5.93359375 C-9.70115234 5.35287109 -9.18746094 4.77214844 -8.65820312 4.17382812 C-5.60879988 0.97290173 -4.61046214 -0.0047678 0 0 Z " fill="#0681D0" transform="translate(86.77734375,49.00390625)"/>
<path d="M0 0 C0.66 0 1.32 0 2 0 C1.54766931 4.77377104 -0.31308129 6.78462425 -3.69140625 10.08203125 C-4.15610825 10.54107346 -4.62081024 11.00011566 -5.09959412 11.47306824 C-6.57806683 12.92924735 -8.06986157 14.37085904 -9.5625 15.8125 C-10.57057507 16.80050098 -11.5777473 17.78942404 -12.58398438 18.77929688 C-15.04562454 21.19696393 -17.51940673 23.60176584 -20 26 C-20.33 25.01 -20.66 24.02 -21 23 C-21.66 23 -22.32 23 -23 23 C-23.93065133 20.39417629 -24.14917407 19.35801776 -23.0625 16.75 C-22.711875 16.1725 -22.36125 15.595 -22 15 C-23.98 15.66 -25.96 16.32 -28 17 C-23.88380164 12.08064098 -19.59589638 7.47352044 -15 3 C-15 6 -15 6 -15.625 8.5625 C-15.74875 9.366875 -15.8725 10.17125 -16 11 C-15.34 11.66 -14.68 12.32 -14 13 C-11.9254644 13.1490712 -11.9254644 13.1490712 -10 12 C-8.6954344 9.00384054 -8.6954344 9.00384054 -8 6 C-6.35 6 -4.7 6 -3 6 C-2.67 5.01 -2.34 4.02 -2 3 C-1.34 3.33 -0.68 3.66 0 4 C0 2.68 0 1.36 0 0 Z " fill="#0582D0" transform="translate(66,78)"/>
<path d="M0 0 C0.763125 0.33 1.52625 0.66 2.3125 1 C4.99069135 2.17436686 4.99069135 2.17436686 8 2 C5.79072873 5.48832306 3.91402949 6.73058503 0 8 C0.061875 8.928125 0.12375 9.85625 0.1875 10.8125 C0 14 0 14 -1.125 15.6875 C-7.51612903 20.16129032 -7.51612903 20.16129032 -11.875 19.6875 C-12.57625 19.460625 -13.2775 19.23375 -14 19 C-12.375 12.25 -12.375 12.25 -9 10 C-8.34 10.33 -7.68 10.66 -7 11 C-7 10.01 -7 9.02 -7 8 C-6.34 8 -5.68 8 -5 8 C-4.9175 7.4225 -4.835 6.845 -4.75 6.25 C-3.79468987 3.3840696 -2.21530827 2.0009236 0 0 Z " fill="#0286D9" transform="translate(81,83)"/>
<path d="M0 0 C0 3.10551666 -0.5393715 4.35261084 -2 7 C-2.66 7 -3.32 7 -4 7 C-4 7.99 -4 8.98 -4 10 C-5.32 10.33 -6.64 10.66 -8 11 C-8.66 13.31 -9.32 15.62 -10 18 C-9.278125 17.855625 -8.55625 17.71125 -7.8125 17.5625 C-5.9375 17.1875 -4.0625 16.8125 -2.1875 16.4375 C-1.465625 16.293125 -0.74375 16.14875 0 16 C0.33 15.01 0.66 14.02 1 13 C1.66 13 2.32 13 3 13 C3.33 12.01 3.66 11.02 4 10 C4.33 10.99 4.66 11.98 5 13 C3.3305598 14.83245968 1.64263413 16.63875066 -0.0625 18.4375 C-0.52849609 18.95376953 -0.99449219 19.47003906 -1.47460938 20.00195312 C-5.10864904 23.78432094 -7.80988013 24.74729753 -13 25 C-14.91506611 22.84555062 -15.93512381 21.49726586 -16.3125 18.60473633 C-15.91361881 15.27999926 -14.89276831 14.31101955 -12.5 12.01171875 C-11.778125 11.30595703 -11.05625 10.60019531 -10.3125 9.87304688 C-9.549375 9.15181641 -8.78625 8.43058594 -8 7.6875 C-7.236875 6.94693359 -6.47375 6.20636719 -5.6875 5.44335938 C-3.80239968 3.61716844 -1.90664431 1.80364241 0 0 Z " fill="#097CC5" transform="translate(78,84)"/>
<path d="M0 0 C3.49406769 1.66762322 4.82670681 2.74006022 7 6 C7.50707684 10.66510697 6.69148306 13.18706566 4 17 C3.4375 15.0625 3.4375 15.0625 3 13 C3.33 12.67 3.66 12.34 4 12 C4.07148199 10.64756083 4.08399454 9.29165633 4.0625 7.9375 C4.041875 6.638125 4.02125 5.33875 4 4 C0.37 3.34 -3.26 2.68 -7 2 C-6.690625 3.423125 -6.690625 3.423125 -6.375 4.875 C-6.25125 5.90625 -6.1275 6.9375 -6 8 C-6.66 8.66 -7.32 9.32 -8 10 C-7.34 10.33 -6.68 10.66 -6 11 C-6 12.65 -6 14.3 -6 16 C-3.36 16.33 -0.72 16.66 2 17 C0 19 0 19 -2.8125 19.375 C-6.89431425 18.89478656 -8.32575544 18.13268648 -11 15 C-11.98006353 11.94584852 -12.30751206 9.19470863 -12 6 C-8.75865414 0.63501376 -6.14547559 -0.48199809 0 0 Z " fill="#087FC9" transform="translate(112,81)"/>
<path d="M0 0 C0.66 0.99 1.32 1.98 2 3 C0.83314734 4.16685266 -0.3480822 5.32023562 -1.5625 6.4375 C-3.24493972 8.05216847 -3.24493972 8.05216847 -4 11 C-3.01 11.33 -2.02 11.66 -1 12 C-3.30368736 13.06652192 -5.64018187 14.06421005 -8 15 C-8.66 14.67 -9.32 14.34 -10 14 C-10 14.66 -10 15.32 -10 16 C-10.66 16 -11.32 16 -12 16 C-12 16.66 -12 17.32 -12 18 C-13.98 18.33 -15.96 18.66 -18 19 C-12.44964797 12.21623641 -6.23557973 6.14477032 0 0 Z " fill="#0682D4" transform="translate(70,62)"/>
<path d="M0 0 C2.48935591 0.78930797 4.669779 1.8348895 7 3 C6.690625 3.598125 6.38125 4.19625 6.0625 4.8125 C4.89790296 7.08956772 4.89790296 7.08956772 4 10 C0.4375 11.6875 0.4375 11.6875 -3 13 C-4.05090762 9.02990455 -4.06172135 5.98145507 -3 2 C-2.01 1.34 -1.02 0.68 0 0 Z " fill="#0287DB" transform="translate(98,66)"/>
<path d="M0 0 C0.66 0 1.32 0 2 0 C1.57602781 4.90217842 -0.51773886 6.97368428 -4 10.3125 C-4.9075 11.19550781 -5.815 12.07851562 -6.75 12.98828125 C-9 15 -9 15 -10 15 C-9.125 8.25 -9.125 8.25 -8 6 C-6.35 6 -4.7 6 -3 6 C-2.67 5.01 -2.34 4.02 -2 3 C-1.34 3.33 -0.68 3.66 0 4 C0 2.68 0 1.36 0 0 Z " fill="#0B7AC3" transform="translate(66,78)"/>
<path d="M0 0 C3.50279955 0.42033595 5.31852363 1.27014272 8.125 3.375 C10.46409307 6.8836396 10.53791057 8.24589433 10.125 12.375 C8.625 15.25 8.625 15.25 7.125 17.375 C6.5625 15.4375 6.5625 15.4375 6.125 13.375 C6.455 13.045 6.785 12.715 7.125 12.375 C7.19648199 11.02256083 7.20899454 9.66665633 7.1875 8.3125 C7.166875 7.013125 7.14625 5.71375 7.125 4.375 C4.11009443 3.37003148 2.08318308 3.27164697 -1.0625 3.3125 C-1.96355469 3.32152344 -2.86460938 3.33054687 -3.79296875 3.33984375 C-4.82357422 3.35724609 -4.82357422 3.35724609 -5.875 3.375 C-3.234375 0.421875 -3.234375 0.421875 0 0 Z " fill="#156EA5" transform="translate(108.875,80.625)"/>
<path d="M0 0 C1.65 0.33 3.3 0.66 5 1 C1.6189962 5.13621084 -1.66590534 8.81316569 -6 12 C-5.59791618 6.37082652 -3.71069698 3.99613521 0 0 Z " fill="#0B76BA" transform="translate(77,66)"/>
<path d="M0 0 C2.5 0.4375 2.5 0.4375 4.3125 1.5625 C6.07002414 4.33753811 5.96822746 6.22679745 5.5 9.4375 C3.5 11.3125 3.5 11.3125 1.5 12.4375 C1.5309375 11.261875 1.5309375 11.261875 1.5625 10.0625 C1.68684063 7.45635039 1.68684063 7.45635039 0.5 5.4375 C1.16 5.4375 1.82 5.4375 2.5 5.4375 C2.5 4.4475 2.5 3.4575 2.5 2.4375 C-0.14 3.0975 -2.78 3.7575 -5.5 4.4375 C-3.19747167 0.55955754 -3.19747167 0.55955754 0 0 Z " fill="#0F7BB9" transform="translate(92.5,98.5625)"/>
<path d="M0 0 C1 2 1 2 0.4375 3.9375 C-1.69885472 7.0027046 -3.45652173 7.75667429 -7 9 C-10.68190702 9.2380325 -14.31640091 9.17697006 -18 9 C-18 8.67 -18 8.34 -18 8 C-17.12988281 7.96132812 -17.12988281 7.96132812 -16.2421875 7.921875 C-9.29098507 7.41716723 -4.74246393 5.26940437 0 0 Z " fill="#1183C9" transform="translate(70,119)"/>
<path d="M0 0 C1.03125 0.309375 2.0625 0.61875 3.125 0.9375 C3.125 1.2675 3.125 1.5975 3.125 1.9375 C0.815 1.9375 -1.495 1.9375 -3.875 1.9375 C-3.545 3.5875 -3.215 5.2375 -2.875 6.9375 C-5.185 6.9375 -7.495 6.9375 -9.875 6.9375 C-5.09600656 -0.08219365 -5.09600656 -0.08219365 0 0 Z " fill="#0F7ABD" transform="translate(86.875,49.0625)"/>
<path d="M0 0 C0.33 0.66 0.66 1.32 1 2 C-1.62215645 7.86129088 -6.46180018 10.28472709 -12 13 C-8.19524578 8.43969176 -4.25030379 4.14910608 0 0 Z " fill="#1180C4" transform="translate(86,103)"/>
<path d="M0 0 C0.33 0.99 0.66 1.98 1 3 C-1.64 5.64 -4.28 8.28 -7 11 C-7.33 10.34 -7.66 9.68 -8 9 C-8.66 8.67 -9.32 8.34 -10 8 C-9.01 7.67 -8.02 7.34 -7 7 C-6.67 6.34 -6.34 5.68 -6 5 C-5.01 5 -4.02 5 -3 5 C-3 4.01 -3 3.02 -3 2 C-2.01 2 -1.02 2 0 2 C0 1.34 0 0.68 0 0 Z " fill="#0875B8" transform="translate(102,74)"/>
<path d="M0 0 C0.33 0.66 0.66 1.32 1 2 C1.66 2 2.32 2 3 2 C3 2.66 3 3.32 3 4 C3.99 4.33 4.98 4.66 6 5 C7.75 7.4375 7.75 7.4375 9 10 C8.67 10.66 8.34 11.32 8 12 C6.86874978 10.92319498 5.74525081 9.83824365 4.625 8.75 C3.99851562 8.14671875 3.37203125 7.5434375 2.7265625 6.921875 C1.02689839 5.0299412 0.01540134 3.31798691 -1 1 C-0.67 0.67 -0.34 0.34 0 0 Z " fill="#0E7DC4" transform="translate(34,123)"/>
<path d="M0 0 C1.35439668 2.70879335 1.06501451 5.00933268 1 8 C-1.31 7.67 -3.62 7.34 -6 7 C-4.02 4.69 -2.04 2.38 0 0 Z " fill="#087DC7" transform="translate(94,68)"/>
<path d="M0 0 C0 0.33 0 0.66 0 1 C-2.64 1 -5.28 1 -8 1 C-8 1.66 -8 2.32 -8 3 C-11.3 3.33 -14.6 3.66 -18 4 C-17 2 -17 2 -14.0625 0.875 C-9.41625375 -0.363999 -4.77103234 -0.17279393 0 0 Z " fill="#116EA9" transform="translate(103,19)"/>
<path d="M0 0 C2.31 0 4.62 0 7 0 C6.02433888 1.16959987 5.044375 2.33561177 4.0625 3.5 C3.51722656 4.1496875 2.97195312 4.799375 2.41015625 5.46875 C1.94480469 5.9740625 1.47945312 6.479375 1 7 C0.67 7 0.34 7 0 7 C0 4.69 0 2.38 0 0 Z " fill="#1074B7" transform="translate(49,93)"/>
<path d="M0 0 C0.63550781 0.18304688 1.27101563 0.36609375 1.92578125 0.5546875 C2.25578125 1.2146875 2.58578125 1.8746875 2.92578125 2.5546875 C1.72953125 2.5340625 0.53328125 2.5134375 -0.69921875 2.4921875 C-4.25426744 2.48586179 -7.57977499 2.85579875 -11.07421875 3.5546875 C-7.8406058 -1.08484412 -5.14210127 -0.69010197 0 0 Z " fill="#1478B8" transform="translate(48.07421875,58.4453125)"/>
<path d="M0 0 C0.66 0 1.32 0 2 0 C1.84518205 2.70931419 1.51827919 4.46584039 -0.40234375 6.4453125 C-1.89771708 7.67679642 -3.4462924 8.8429837 -5 10 C-5 8.68 -5 7.36 -5 6 C-4.34 6 -3.68 6 -3 6 C-2.67 5.01 -2.34 4.02 -2 3 C-1.34 3.33 -0.68 3.66 0 4 C0 2.68 0 1.36 0 0 Z " fill="#1074B4" transform="translate(66,78)"/>
<path d="M0 0 C1.32229189 2.64458379 1.09677194 4.67761301 1.0625 7.625 C1.05347656 8.62789062 1.04445313 9.63078125 1.03515625 10.6640625 C1.02355469 11.43492188 1.01195313 12.20578125 1 13 C0.34 12.67 -0.32 12.34 -1 12 C-1.484375 10.0390625 -1.484375 10.0390625 -1.75 7.625 C-1.84796875 6.83351563 -1.9459375 6.04203125 -2.046875 5.2265625 C-2 3 -2 3 0 0 Z " fill="#1078B9" transform="translate(102,84)"/>
<path d="M0 0 C0.66 0.99 1.32 1.98 2 3 C0.00449854 4.99550146 -1.47924835 5.81376393 -4 7 C-5.33430942 7.66471092 -6.66778336 8.33110461 -8 9 C-7.04270084 7.87411986 -6.08412105 6.7493285 -5.125 5.625 C-4.59132813 4.99851562 -4.05765625 4.37203125 -3.5078125 3.7265625 C-2.38567993 2.44163349 -1.20628025 1.20628025 0 0 Z " fill="#107BBA" transform="translate(70,62)"/>
<path d="M0 0 C0.66 0.99 1.32 1.98 2 3 C-0.31 4.98 -2.62 6.96 -5 9 C-5.33 8.01 -5.66 7.02 -6 6 C-5.01 6 -4.02 6 -3 6 C-2.67 5.01 -2.34 4.02 -2 3 C-1.34 3 -0.68 3 0 3 C0 2.01 0 1.02 0 0 Z " fill="#0B70B1" transform="translate(81,94)"/>
<path d="M0 0 C0 3 0 3 -2.3125 5.6875 C-5 8 -5 8 -8 8 C-5.36 5.36 -2.72 2.72 0 0 Z " fill="#1279B4" transform="translate(51,81)"/>
<path d="M0 0 C0.66 0 1.32 0 2 0 C2.33 2.64 2.66 5.28 3 8 C2.01 8 1.02 8 0 8 C-0.38063221 5.6739143 -0.71269945 3.33944736 -1 1 C-0.67 0.67 -0.34 0.34 0 0 Z " fill="#0288DF" transform="translate(84,52)"/>
<path d="M0 0 C1.67542976 0.28604898 3.34385343 0.61781233 5 1 C3.35 2.65 1.7 4.3 0 6 C-0.38218767 4.34385343 -0.71395102 2.67542976 -1 1 C-0.67 0.67 -0.34 0.34 0 0 Z " fill="#097BC4" transform="translate(81,35)"/>
<path d="M0 0 C1.36125 0.12375 1.36125 0.12375 2.75 0.25 C2.42 0.91 2.09 1.57 1.75 2.25 C-0.5625 2.8125 -0.5625 2.8125 -3.25 3.25 C-4.58542939 3.57483418 -5.91961551 3.9050855 -7.25 4.25 C-4.83923194 1.28290085 -3.90322061 0.30024774 0 0 Z " fill="#0187E1" transform="translate(92.25,21.75)"/>
<path d="M0 0 C2.475 0.99 2.475 0.99 5 2 C3 4 3 4 -0.125 4.125 C-1.548125 4.063125 -1.548125 4.063125 -3 4 C-2.01 2.68 -1.02 1.36 0 0 Z " fill="#0C7FC7" transform="translate(64,133)"/>
<path d="M0 0 C0 2 0 4 0 6 C-1.98 6.33 -3.96 6.66 -6 7 C-4.02 4.69 -2.04 2.38 0 0 Z " fill="#0B7CB7" transform="translate(58,74)"/>
<path d="M0 0 C0.66 0.33 1.32 0.66 2 1 C2 2.65 2 4.3 2 6 C1.01 6.495 1.01 6.495 0 7 C0 6.34 0 5.68 0 5 C-0.66 5 -1.32 5 -2 5 C-1.34 3.35 -0.68 1.7 0 0 Z " fill="#1074B3" transform="translate(90,51)"/>
</svg>
